<?xml version="1.0" encoding="UTF-8" standalone="no"?>
<!-- Created with Inkscape (http://www.inkscape.org/) -->

<svg
   xmlns:dc="http://purl.org/dc/elements/1.1/"
   xmlns:cc="http://creativecommons.org/ns#"
   xmlns:rdf="http://www.w3.org/1999/02/22-rdf-syntax-ns#"
   xmlns:svg="http://www.w3.org/2000/svg"
   xmlns="http://www.w3.org/2000/svg"
   xmlns:xlink="http://www.w3.org/1999/xlink"
   xmlns:sodipodi="http://sodipodi.sourceforge.net/DTD/sodipodi-0.dtd"
   xmlns:inkscape="http://www.inkscape.org/namespaces/inkscape"
   version="1.1"
   id="svg2528"
   width="4352"
   height="3264"
   viewBox="0 0 4352 3264"
   sodipodi:docname="2many2.svg"
   inkscape:version="0.92.2 (5c3e80d, 2017-08-06)">
  <metadata
     id="metadata2534">
    <rdf:RDF>
      <cc:Work
         rdf:about="">
        <dc:format>image/svg+xml</dc:format>
        <dc:type
           rdf:resource="http://purl.org/dc/dcmitype/StillImage" />
        <dc:title />
      </cc:Work>
    </rdf:RDF>
  </metadata>
  <defs
     id="defs2532" />
  <sodipodi:namedview
     pagecolor="#ffffff"
     bordercolor="#666666"
     borderopacity="1"
     objecttolerance="10"
     gridtolerance="10"
     guidetolerance="10"
     inkscape:pageopacity="0"
     inkscape:pageshadow="2"
     inkscape:window-width="1920"
     inkscape:window-height="1023"
     id="namedview2530"
     showgrid="false"
     inkscape:zoom="0.39514791"
     inkscape:cx="2037.6501"
     inkscape:cy="1540.9743"
     inkscape:window-x="0"
     inkscape:window-y="0"
     inkscape:window-maximized="1"
     inkscape:current-layer="layer4"
     inkscape:object-nodes="false"
     inkscape:snap-nodes="false"
     inkscape:snap-others="false" />
  <g
     inkscape:groupmode="layer"
     id="layer3"
     inkscape:label="bg"
     sodipodi:insensitive="true"
     style="display:none">
    <image
       width="4352"
       height="3264"
       preserveAspectRatio="none"
       xlink:href="file:///home/michael/20180721_183920.jpg"
       id="image2536"
       x="0"
       y="0"
       sodipodi:absref="/home/michael/20180721_183920.jpg" />
  </g>
  <g
     inkscape:groupmode="layer"
     id="layer4"
     inkscape:label="pen"
     style="display:inline">
    <path
       style="fill:none;stroke:#000000;stroke-width:1px;stroke-linecap:butt;stroke-linejoin:miter;stroke-opacity:1"
       d="m 1176.7746,1613.9849 -156.9033,-101.2279 -118.94283,-48.0832 55.67536,164.4953 37.96047,124.0042"
       id="path5004"
       inkscape:connector-curvature="0" />
    <path
       style="fill:none;stroke:#000000;stroke-width:1px;stroke-linecap:butt;stroke-linejoin:miter;stroke-opacity:1"
       d="m 1047.709,1717.7435 -126.53494,113.8815 -27.83768,172.0874 126.53492,136.6577 427.6879,73.3902 265.7233,-116.4121 98.6972,-164.4953 7.5921,-113.8814 -73.3902,-93.6359 -48.0833,-30.3683"
       id="path5010"
       inkscape:connector-curvature="0" />
    <path
       style="fill:none;stroke:#000000;stroke-width:1px;stroke-linecap:butt;stroke-linejoin:miter;stroke-opacity:1"
       d="m 1617.116,1613.9849 -199.9251,-45.5525 -129.0656,10.1228 -134.127,53.1446"
       id="path5012"
       inkscape:connector-curvature="0" />
    <path
       style="fill:none;stroke:#000000;stroke-width:1px;stroke-linecap:butt;stroke-linejoin:miter;stroke-opacity:1"
       d="m 1606.9932,1581.0859 103.7586,-58.2061 106.2893,-63.2674 -50.6139,126.5349 -20.2456,116.4121"
       id="path5014"
       inkscape:connector-curvature="0" />
    <path
       style="fill:none;stroke:#000000;stroke-width:1px;stroke-linecap:butt;stroke-linejoin:miter;stroke-opacity:1"
       d="m 1488.0504,1565.9017 124.0042,-75.921 212.5786,-174.6181 184.741,-86.0438"
       id="path5016"
       inkscape:connector-curvature="0" />
    <path
       style="fill:none;stroke:#000000;stroke-width:1px;stroke-linecap:butt;stroke-linejoin:miter;stroke-opacity:1"
       d="m 1882.8393,2034.0808 -75.921,-5.0614 -60.7367,22.7763"
       id="path5018"
       inkscape:connector-curvature="0" />
    <path
       style="fill:none;stroke:#000000;stroke-width:1px;stroke-linecap:butt;stroke-linejoin:miter;stroke-opacity:1"
       d="m 1662.6686,2137.8394 -12.6535,63.2675 55.6753,48.0832 151.8419,-17.7149 88.5744,-68.3288 v -63.2675"
       id="path5020"
       inkscape:connector-curvature="0" />
    <path
       style="fill:none;stroke:#000000;stroke-width:1px;stroke-linecap:butt;stroke-linejoin:miter;stroke-opacity:1"
       d="m 1963.8216,2115.0631 43.0219,-45.5525 45.5525,-32.8991"
       id="path5022"
       inkscape:connector-curvature="0" />
    <path
       style="fill:none;stroke:#000000;stroke-width:1px;stroke-linecap:butt;stroke-linejoin:miter;stroke-opacity:1"
       d="m 913.58196,2054.3264 -121.4735,27.8377 -53.14466,70.8595 v 80.9823 h 141.71909 l 111.35071,-25.3069 27.8377,-43.0219"
       id="path5024"
       inkscape:connector-curvature="0" />
    <path
       style="fill:none;stroke:#000000;stroke-width:1px;stroke-linecap:butt;stroke-linejoin:miter;stroke-opacity:1"
       d="m 1918.2691,1846.8091 -101.228,174.6182"
       id="path5026"
       inkscape:connector-curvature="0" />
    <path
       style="fill:none;stroke:#000000;stroke-width:1px;stroke-linecap:butt;stroke-linejoin:miter;stroke-opacity:1"
       d="m 1627.2388,1768.3575 60.7367,48.0833 -20.2455,58.206 h -53.1447 l -20.2456,-68.3288 z"
       id="path5028"
       inkscape:connector-curvature="0" />
    <path
       style="fill:none;stroke:#000000;stroke-width:1px;stroke-linecap:butt;stroke-linejoin:miter;stroke-opacity:1"
       d="m 1326.0857,1910.0766 -22.7763,73.3902 -80.9823,-20.2455 -5.0614,-65.7982 70.8596,-53.1447 z"
       id="path5030"
       inkscape:connector-curvature="0" />
    <path
       style="fill:none;stroke:#000000;stroke-width:1px;stroke-linecap:butt;stroke-linejoin:miter;stroke-opacity:1"
       d="m 1561.4406,1993.5896 -40.4911,20.2456 -60.7368,17.7149 35.4298,10.1228 37.9605,12.6535 20.2455,-25.307 17.7149,-30.3684 z"
       id="path5032"
       inkscape:connector-curvature="0" />
    <path
       style="fill:none;stroke:#000000;stroke-width:1px;stroke-linecap:butt;stroke-linejoin:miter;stroke-opacity:1"
       d="m 1520.9495,2072.0413 -17.7149,25.3069 -43.0219,17.7149"
       id="path5034"
       inkscape:connector-curvature="0" />
    <path
       style="fill:none;stroke:#000000;stroke-width:1px;stroke-linecap:butt;stroke-linejoin:miter;stroke-opacity:1"
       d="m 1541.1951,2061.9185 17.7148,15.1842 h 22.7763"
       id="path5036"
       inkscape:connector-curvature="0" />
    <path
       style="fill:none;stroke:#000000;stroke-width:1px;stroke-linecap:butt;stroke-linejoin:miter;stroke-opacity:1"
       d="m 1655.0765,1996.1203 70.8595,-7.5921"
       id="path5038"
       inkscape:connector-curvature="0" />
    <path
       style="fill:none;stroke:#000000;stroke-width:1px;stroke-linecap:butt;stroke-linejoin:miter;stroke-opacity:1"
       d="m 1647.4844,2046.7343 55.6753,2.5307"
       id="path5040"
       inkscape:connector-curvature="0" />
    <path
       style="fill:none;stroke:#000000;stroke-width:1px;stroke-linecap:butt;stroke-linejoin:miter;stroke-opacity:1"
       d="m 1369.1076,2049.265 -73.3902,45.5525"
       id="path5042"
       inkscape:connector-curvature="0" />
    <path
       style="fill:none;stroke:#000000;stroke-width:1px;stroke-linecap:butt;stroke-linejoin:miter;stroke-opacity:1"
       d="m 1396.9453,2107.471 -55.6754,45.5526"
       id="path5044"
       inkscape:connector-curvature="0" />
    <path
       style="fill:none;stroke:#000000;stroke-width:1px;stroke-linecap:butt;stroke-linejoin:miter;stroke-opacity:1"
       d="m 3350.6441,1371.0379 -30.3684,129.0656 -144.2498,154.3726 -265.7232,124.0042 -101.228,159.434 -22.7762,136.6577 2.5306,73.3902"
       id="path5046"
       inkscape:connector-curvature="0" />
    <path
       style="fill:none;stroke:#000000;stroke-width:1px;stroke-linecap:butt;stroke-linejoin:miter;stroke-opacity:1"
       d="m 3659.3892,1368.5072 v 318.868 l -22.7762,212.5786 -10.1228,167.0261"
       id="path5048"
       inkscape:connector-curvature="0" />
    <path
       style="fill:none;stroke:#000000;stroke-width:1px;stroke-linecap:butt;stroke-linejoin:miter;stroke-opacity:1"
       d="m 3613.8367,2084.6948 h 48.0832 l 30.3684,30.3683 2.5307,63.2675 -70.8595,15.1842 -65.7982,-20.2456"
       id="path5050"
       inkscape:connector-curvature="0" />
    <path
       style="fill:none;stroke:#000000;stroke-width:1px;stroke-linecap:butt;stroke-linejoin:miter;stroke-opacity:1"
       d="m 3451.872,2110.0017 58.2061,-20.2456 50.6139,27.8377 -17.7149,60.7368 -53.1446,27.8377 -55.6754,-12.6535"
       id="path5052"
       inkscape:connector-curvature="0" />
    <path
       style="fill:none;stroke:#000000;stroke-width:1px;stroke-linecap:butt;stroke-linejoin:miter;stroke-opacity:1"
       d="m 3429.0957,2036.6115 10.1228,-129.0656 -12.6535,-124.0042"
       id="path5054"
       inkscape:connector-curvature="0" />
    <path
       style="fill:none;stroke:#000000;stroke-width:1px;stroke-linecap:butt;stroke-linejoin:miter;stroke-opacity:1"
       d="m 3629.0209,1654.4761 -32.8991,98.6972 -37.9605,53.1447 -22.7763,179.6795 -25.3069,98.6973"
       id="path5056"
       inkscape:connector-curvature="0" />
    <path
       style="fill:none;stroke:#000000;stroke-width:1px;stroke-linecap:butt;stroke-linejoin:miter;stroke-opacity:1"
       d="m 3125.412,2115.0631 167.026,-7.5921 116.4121,32.8991 25.307,32.8991 -32.899,32.8991 -103.7587,12.6534"
       id="path5058"
       inkscape:connector-curvature="0" />
    <path
       style="fill:none;stroke:#000000;stroke-width:1px;stroke-linecap:butt;stroke-linejoin:miter;stroke-opacity:1"
       d="m 3024.1841,1874.6468 156.9032,-63.2674 134.127,118.9428 22.7763,124.0042 -27.8377,45.5525"
       id="path5060"
       inkscape:connector-curvature="0" />
    <path
       style="fill:none;stroke:#000000;stroke-width:1px;stroke-linecap:butt;stroke-linejoin:miter;stroke-opacity:1"
       d="m 2776.1757,2072.0413 -126.5349,60.7367 -17.7149,75.921 260.6619,45.5525 412.5037,27.8377 225.2322,-15.1842 22.7762,-30.3684 -63.2674,-15.1842 -182.2103,-2.5307 -230.2935,-32.899 -258.1312,-22.7763 -70.8595,-22.7763"
       id="path5062"
       inkscape:connector-curvature="0" />
    <path
       style="fill:none;stroke:#000000;stroke-width:1px;stroke-linecap:butt;stroke-linejoin:miter;stroke-opacity:1"
       d="m 3512.6088,1376.0993 160.0228,-22.4651 67.74,-68.64 37.9604,-146.7805 -65.7981,-179.67954 -222.7014,-78.45163 -184.741,40.49116 -129.0656,139.18841 -5.0614,174.6181 96.1666,96.1666 108.82,43.0218"
       id="path5066"
       inkscape:connector-curvature="0"
       sodipodi:nodetypes="ccccccccccc" />
    <path
       style="fill:none;stroke:#000000;stroke-width:1px;stroke-linecap:butt;stroke-linejoin:miter;stroke-opacity:1"
       d="m 3659.3892,907.9202 96.1666,-32.89907 83.513,-65.79815 -27.8377,139.18839 -63.2674,65.79813"
       id="path5068"
       inkscape:connector-curvature="0" />
    <path
       style="fill:none;stroke:#000000;stroke-width:1px;stroke-linecap:butt;stroke-linejoin:miter;stroke-opacity:1"
       d="m 3244.3548,925.63509 -55.6754,-32.89908 -50.6139,-32.89907 2.5307,111.35071 37.9604,60.73675"
       id="path5070"
       inkscape:connector-curvature="0" />
    <path
       style="fill:none;stroke:#000000;stroke-width:1px;stroke-linecap:butt;stroke-linejoin:miter;stroke-opacity:1"
       d="m 3525.2623,1110.376 43.0218,-40.4911 40.4912,35.4297 -15.1842,50.614 -63.2674,7.5921 z"
       id="path5072"
       inkscape:connector-curvature="0" />
    <path
       style="fill:none;stroke:#000000;stroke-width:1px;stroke-linecap:butt;stroke-linejoin:miter;stroke-opacity:1"
       d="m 3305.0915,1130.6216 -12.6535,45.5526 h -45.5525 l -17.7149,-58.2061 43.0219,-32.899 z"
       id="path5074"
       inkscape:connector-curvature="0" />
    <path
       style="fill:none;stroke:#000000;stroke-width:1px;stroke-linecap:butt;stroke-linejoin:miter;stroke-opacity:1"
       d="m 3429.0957,1229.3188 h -35.4297 l -25.307,12.6535 17.7149,12.6535 25.3069,17.7149 7.5921,-22.7763 z"
       id="path5076"
       inkscape:connector-curvature="0" />
    <path
       style="fill:none;stroke:#000000;stroke-width:1px;stroke-linecap:butt;stroke-linejoin:miter;stroke-opacity:1"
       d="m 3431.6264,1287.5249 25.307,15.1842"
       id="path5078"
       inkscape:connector-curvature="0" />
    <path
       style="fill:none;stroke:#000000;stroke-width:1px;stroke-linecap:butt;stroke-linejoin:miter;stroke-opacity:1"
       d="m 3401.2581,1297.6477 -22.7763,17.7149"
       id="path5080"
       inkscape:connector-curvature="0" />
    <path
       style="fill:none;stroke:#000000;stroke-width:1px;stroke-linecap:butt;stroke-linejoin:miter;stroke-opacity:1"
       d="m 3578.4069,1249.5644 73.3903,10.1228"
       id="path5082"
       inkscape:connector-curvature="0" />
    <path
       style="fill:none;stroke:#000000;stroke-width:1px;stroke-linecap:butt;stroke-linejoin:miter;stroke-opacity:1"
       d="m 3565.7534,1269.81 65.7982,30.3684"
       id="path5084"
       inkscape:connector-curvature="0" />
    <path
       style="fill:none;stroke:#000000;stroke-width:1px;stroke-linecap:butt;stroke-linejoin:miter;stroke-opacity:1"
       d="m 3287.3766,1249.5644 -55.6753,17.7149"
       id="path5086"
       inkscape:connector-curvature="0" />
    <path
       style="fill:none;stroke:#000000;stroke-width:1px;stroke-linecap:butt;stroke-linejoin:miter;stroke-opacity:1"
       d="m 3302.5608,1282.4635 -25.3069,17.7149"
       id="path5088"
       inkscape:connector-curvature="0" />
  </g>
</svg>
