<?xml version="1.0" encoding="UTF-8" standalone="no"?>
<!-- Created with Inkscape (http://www.inkscape.org/) -->

<svg
   xmlns:dc="http://purl.org/dc/elements/1.1/"
   xmlns:cc="http://creativecommons.org/ns#"
   xmlns:rdf="http://www.w3.org/1999/02/22-rdf-syntax-ns#"
   xmlns:svg="http://www.w3.org/2000/svg"
   xmlns="http://www.w3.org/2000/svg"
   xmlns:xlink="http://www.w3.org/1999/xlink"
   xmlns:sodipodi="http://sodipodi.sourceforge.net/DTD/sodipodi-0.dtd"
   xmlns:inkscape="http://www.inkscape.org/namespaces/inkscape"
   version="1.1"
   id="svg4823"
   width="4352"
   height="3264"
   viewBox="0 0 4352 3264"
   sodipodi:docname="2manyb.svg"
   inkscape:version="0.92.2 (5c3e80d, 2017-08-06)">
  <metadata
     id="metadata4829">
    <rdf:RDF>
      <cc:Work
         rdf:about="">
        <dc:format>image/svg+xml</dc:format>
        <dc:type
           rdf:resource="http://purl.org/dc/dcmitype/StillImage" />
        <dc:title />
      </cc:Work>
    </rdf:RDF>
  </metadata>
  <defs
     id="defs4827" />
  <sodipodi:namedview
     pagecolor="#ffffff"
     bordercolor="#666666"
     borderopacity="1"
     objecttolerance="10"
     gridtolerance="10"
     guidetolerance="10"
     inkscape:pageopacity="0"
     inkscape:pageshadow="2"
     inkscape:window-width="753"
     inkscape:window-height="480"
     id="namedview4825"
     showgrid="false"
     inkscape:zoom="0.069852941"
     inkscape:cx="2176"
     inkscape:cy="1632"
     inkscape:window-x="487"
     inkscape:window-y="284"
     inkscape:window-maximized="0"
     inkscape:current-layer="layer10"
     inkscape:snap-nodes="false"
     inkscape:snap-others="false" />
  <g
     inkscape:groupmode="layer"
     id="layer9"
     inkscape:label="bg"
     style="display:none"
     sodipodi:insensitive="true">
    <image
       width="4352"
       height="3264"
       preserveAspectRatio="none"
       xlink:href="file:///home/michael/20180721_184045.jpg"
       id="image4831"
       x="0"
       y="0"
       sodipodi:absref="/home/michael/20180721_184045.jpg" />
  </g>
  <g
     inkscape:groupmode="layer"
     id="layer10"
     inkscape:label="pen">
    <path
       style="fill:none;stroke:#000000;stroke-width:1px;stroke-linecap:butt;stroke-linejoin:miter;stroke-opacity:1"
       d="m 2262.444,673.83064 108.82,-32.89907 145.5151,-5.0614 88.5744,21.51093"
       id="path13603"
       inkscape:connector-curvature="0" />
    <path
       style="fill:none;stroke:#000000;stroke-width:1px;stroke-linecap:butt;stroke-linejoin:miter;stroke-opacity:1"
       d="m 2597.7615,647.25831 78.4516,-56.9407 30.3684,-20.24559 -29.1031,89.83978 1.2654,55.67536"
       id="path13605"
       inkscape:connector-curvature="0" />
    <path
       style="fill:none;stroke:#000000;stroke-width:1px;stroke-linecap:butt;stroke-linejoin:miter;stroke-opacity:1"
       d="m 2659.7636,715.58716 53.1446,62.0021 v 101.22791 l -40.4912,132.86163 -120.2081,68.3289 -102.4933,20.2455 -65.7981,2.5307"
       id="path13607"
       inkscape:connector-curvature="0" />
    <path
       style="fill:none;stroke:#000000;stroke-width:1px;stroke-linecap:butt;stroke-linejoin:miter;stroke-opacity:1"
       d="m 2261.1786,1080.0077 -96.1665,-40.4912 -50.614,-93.63583 25.307,-160.69932 26.5724,-54.41001"
       id="path13609"
       inkscape:connector-curvature="0" />
    <path
       style="fill:none;stroke:#000000;stroke-width:1px;stroke-linecap:butt;stroke-linejoin:miter;stroke-opacity:1"
       d="m 2270.0361,653.58506 -80.9824,-29.10303 -63.2674,-35.42977 29.103,101.22792 22.7763,75.92094"
       id="path13611"
       inkscape:connector-curvature="0" />
    <path
       style="fill:none;stroke:#000000;stroke-width:1px;stroke-linecap:butt;stroke-linejoin:miter;stroke-opacity:1"
       d="m 2464.8998,897.79741 27.8377,-10.12279 29.103,10.12279 -18.9802,10.12279 -11.3882,17.71489 -12.6534,-13.91884 z"
       id="path13613"
       inkscape:connector-curvature="0" />
    <path
       style="fill:none;stroke:#000000;stroke-width:1px;stroke-linecap:butt;stroke-linejoin:miter;stroke-opacity:1"
       d="m 2486.4107,930.69648 -5.0614,18.98024 -17.7148,12.65349"
       id="path13615"
       inkscape:connector-curvature="0" />
    <path
       style="fill:none;stroke:#000000;stroke-width:1px;stroke-linecap:butt;stroke-linejoin:miter;stroke-opacity:1"
       d="m 2495.2682,928.16578 8.8574,16.44954 8.8575,11.38814"
       id="path13617"
       inkscape:connector-curvature="0" />
    <path
       style="fill:none;stroke:#000000;stroke-width:1px;stroke-linecap:butt;stroke-linejoin:miter;stroke-opacity:1"
       d="m 2615.4763,934.49253 44.2873,12.65349"
       id="path13619"
       inkscape:connector-curvature="0" />
    <path
       style="fill:none;stroke:#000000;stroke-width:1px;stroke-linecap:butt;stroke-linejoin:miter;stroke-opacity:1"
       d="m 2605.3535,953.47276 35.4298,11.38814"
       id="path13621"
       inkscape:connector-curvature="0" />
    <path
       style="fill:none;stroke:#000000;stroke-width:1px;stroke-linecap:butt;stroke-linejoin:miter;stroke-opacity:1"
       d="m 2337.0996,944.61532 -44.2873,13.91884"
       id="path13623"
       inkscape:connector-curvature="0" />
    <path
       style="fill:none;stroke:#000000;stroke-width:1px;stroke-linecap:butt;stroke-linejoin:miter;stroke-opacity:1"
       d="m 2358.6105,967.39161 -31.6337,15.18418"
       id="path13625"
       inkscape:connector-curvature="0" />
    <path
       style="fill:none;stroke:#000000;stroke-width:1px;stroke-linecap:butt;stroke-linejoin:miter;stroke-opacity:1"
       d="m 2566.1277,792.77344 24.0417,-36.69512 30.3683,8.85745 15.1842,45.55256 -37.9604,31.63372 -32.8991,-18.98023 z"
       id="path13627"
       inkscape:connector-curvature="0" />
    <path
       style="fill:none;stroke:#000000;stroke-width:1px;stroke-linecap:butt;stroke-linejoin:miter;stroke-opacity:1"
       d="m 2366.2026,795.30414 -25.307,36.69512 -39.2258,-7.59209 -6.3268,-39.22582 25.307,-41.75652 34.1645,2.5307 z"
       id="path13629"
       inkscape:connector-curvature="0" />
    <path
       style="fill:none;stroke:#000000;stroke-width:1px;stroke-linecap:butt;stroke-linejoin:miter;stroke-opacity:1"
       d="m 2655.9675,1031.9244 74.6556,79.717 65.7981,65.7981 1.2654,48.0833 -41.7565,2.5307 -111.3507,-60.7368 -67.0635,-10.1228"
       id="path13631"
       inkscape:connector-curvature="0" />
    <path
       style="fill:none;stroke:#000000;stroke-width:1px;stroke-linecap:butt;stroke-linejoin:miter;stroke-opacity:1"
       d="m 2356.0798,1198.9505 -79.717,36.6951 -54.41,51.8793 -40.4912,32.8991 -64.5328,3.796 12.6535,-82.2477 55.6754,-126.5349 41.7565,-43.0218"
       id="path13633"
       inkscape:connector-curvature="0" />
    <path
       style="fill:none;stroke:#000000;stroke-width:1px;stroke-linecap:butt;stroke-linejoin:miter;stroke-opacity:1"
       d="m 2730.6231,942.08462 -2.5307,-124.0042 13.9188,-73.39024 88.5745,107.55467"
       id="path13635"
       inkscape:connector-curvature="0" />
    <path
       style="fill:none;stroke:#000000;stroke-width:1px;stroke-linecap:butt;stroke-linejoin:miter;stroke-opacity:1"
       d="m 2790.0945,890.20532 102.4933,-43.02187 141.7191,7.59209 36.6951,8.85745"
       id="path13637"
       inkscape:connector-curvature="0" />
    <path
       style="fill:none;stroke:#000000;stroke-width:1px;stroke-linecap:butt;stroke-linejoin:miter;stroke-opacity:1"
       d="m 3054.5524,872.49043 75.921,-55.67536 60.7367,-25.30698 -35.4297,137.92304 -1.2654,54.41001"
       id="path13639"
       inkscape:connector-curvature="0" />
    <path
       style="fill:none;stroke:#000000;stroke-width:1px;stroke-linecap:butt;stroke-linejoin:miter;stroke-opacity:1"
       d="m 3143.1269,973.71835 22.7762,78.45165 -17.7148,97.4319 -44.2873,73.3902 -91.1051,39.2258 -97.4319,1.2654"
       id="path13641"
       inkscape:connector-curvature="0" />
    <path
       style="fill:none;stroke:#000000;stroke-width:1px;stroke-linecap:butt;stroke-linejoin:miter;stroke-opacity:1"
       d="m 2974.8355,1110.376 27.8376,17.7149 20.2456,15.1842 13.9189,-21.5109 8.8574,-24.0417 -27.8377,-1.2653 z"
       id="path13643"
       inkscape:connector-curvature="0" />
    <path
       style="fill:none;stroke:#000000;stroke-width:1px;stroke-linecap:butt;stroke-linejoin:miter;stroke-opacity:1"
       d="m 3012.7959,1144.5405 -18.9802,12.6534"
       id="path13645"
       inkscape:connector-curvature="0" />
    <path
       style="fill:none;stroke:#000000;stroke-width:1px;stroke-linecap:butt;stroke-linejoin:miter;stroke-opacity:1"
       d="m 3029.2455,1152.1326 13.9188,13.9188"
       id="path13647"
       inkscape:connector-curvature="0" />
    <path
       style="fill:none;stroke:#000000;stroke-width:1px;stroke-linecap:butt;stroke-linejoin:miter;stroke-opacity:1"
       d="m 3077.3287,1117.9681 h 18.9803 l 17.7148,11.3882"
       id="path13649"
       inkscape:connector-curvature="0" />
    <path
       style="fill:none;stroke:#000000;stroke-width:1px;stroke-linecap:butt;stroke-linejoin:miter;stroke-opacity:1"
       d="m 3071.002,1150.8672 31.6337,-6.3267 20.2456,15.1841"
       id="path13651"
       inkscape:connector-curvature="0" />
    <path
       style="fill:none;stroke:#000000;stroke-width:1px;stroke-linecap:butt;stroke-linejoin:miter;stroke-opacity:1"
       d="m 2917.8947,1129.3563 -39.2258,1.2653 -17.7149,18.9803"
       id="path13653"
       inkscape:connector-curvature="0" />
    <path
       style="fill:none;stroke:#000000;stroke-width:1px;stroke-linecap:butt;stroke-linejoin:miter;stroke-opacity:1"
       d="m 2940.671,1162.2553 -37.9604,12.6535 -20.2456,15.1842"
       id="path13655"
       inkscape:connector-curvature="0" />
    <path
       style="fill:none;stroke:#000000;stroke-width:1px;stroke-linecap:butt;stroke-linejoin:miter;stroke-opacity:1"
       d="m 3058.3485,988.90254 22.7763,-35.42978 35.4297,5.0614 -2.5307,41.75654 -30.3683,25.307 z"
       id="path13657"
       inkscape:connector-curvature="0" />
    <path
       style="fill:none;stroke:#000000;stroke-width:1px;stroke-linecap:butt;stroke-linejoin:miter;stroke-opacity:1"
       d="m 2883.7303,1015.4749 -29.103,35.4297 -27.8377,-30.3683 15.1842,-45.5526 36.6951,3.79604 z"
       id="path13659"
       inkscape:connector-curvature="0" />
    <path
       style="fill:none;stroke:#000000;stroke-width:1px;stroke-linecap:butt;stroke-linejoin:miter;stroke-opacity:1"
       d="m 3130.4734,1209.0733 37.9604,29.103 v 65.7981 l -29.103,30.3684 -62.0021,11.3881 -27.8377,-26.5723 -10.1228,-48.0832"
       id="path13661"
       inkscape:connector-curvature="0" />
    <path
       style="fill:none;stroke:#000000;stroke-width:1px;stroke-linecap:butt;stroke-linejoin:miter;stroke-opacity:1"
       d="m 2822.9936,1228.0535 68.3288,8.8574 30.3684,65.7982 -37.9605,45.5525 -55.6753,7.5921 -50.614,-6.3267"
       id="path13663"
       inkscape:connector-curvature="0" />
    <path
       style="fill:none;stroke:#000000;stroke-width:1px;stroke-linecap:butt;stroke-linejoin:miter;stroke-opacity:1"
       d="m 1606.9932,1168.5821 -54.41,37.9605 -46.8179,120.2081 35.4298,98.6972 74.6555,101.228 140.4538,50.6139 113.8814,20.2456 37.9605,-21.5109"
       id="path13665"
       inkscape:connector-curvature="0" />
    <path
       style="fill:none;stroke:#000000;stroke-width:1px;stroke-linecap:butt;stroke-linejoin:miter;stroke-opacity:1"
       d="m 1679.1181,1117.9681 113.8814,-8.8574 83.513,21.5109 92.3705,44.2872"
       id="path13667"
       inkscape:connector-curvature="0" />
    <path
       style="fill:none;stroke:#000000;stroke-width:1px;stroke-linecap:butt;stroke-linejoin:miter;stroke-opacity:1"
       d="m 2062.5188,1276.1368 31.6338,107.5546 -15.1842,101.2279 -50.614,56.9407 -44.2872,25.307"
       id="path13669"
       inkscape:connector-curvature="0" />
    <path
       style="fill:none;stroke:#000000;stroke-width:1px;stroke-linecap:butt;stroke-linejoin:miter;stroke-opacity:1"
       d="m 2070.1109,1543.1254 51.8793,43.0219 69.5942,75.9209 41.7565,17.7149 -21.5109,63.2674 -51.8793,8.8575 -29.103,-59.4714 -91.1051,-55.6754 -46.818,-30.3684"
       id="path13671"
       inkscape:connector-curvature="0" />
    <path
       style="fill:none;stroke:#000000;stroke-width:1px;stroke-linecap:butt;stroke-linejoin:miter;stroke-opacity:1"
       d="m 1627.2388,1548.1868 -34.1644,99.9626 -22.7763,161.9646 5.0614,69.5942 63.2674,-62.0021 31.6338,-106.2893 37.9604,-48.0833 45.5526,-32.899"
       id="path13673"
       inkscape:connector-curvature="0" />
    <path
       style="fill:none;stroke:#000000;stroke-width:1px;stroke-linecap:butt;stroke-linejoin:miter;stroke-opacity:1"
       d="m 1895.4928,1325.4854 49.3486,-21.511 25.307,36.6952 -21.511,54.41 -53.1446,8.8574 -2.5307,-56.9407 z"
       id="path13675"
       inkscape:connector-curvature="0" />
    <path
       style="fill:none;stroke:#000000;stroke-width:1px;stroke-linecap:butt;stroke-linejoin:miter;stroke-opacity:1"
       d="m 1629.7695,1276.1368 31.6337,-21.511 16.4495,17.7149 -7.592,27.8377 -37.9605,24.0416 -16.4496,-26.5723 z"
       id="path13677"
       inkscape:connector-curvature="0" />
    <path
       style="fill:none;stroke:#000000;stroke-width:1px;stroke-linecap:butt;stroke-linejoin:miter;stroke-opacity:1"
       d="m 1719.6093,1395.0796 27.8376,-2.5307 41.7566,11.3881 -20.2456,8.8574 -20.2456,13.9189 -24.0416,-16.4496 -6.3268,-10.1227 z"
       id="path13679"
       inkscape:connector-curvature="0" />
    <path
       style="fill:none;stroke:#000000;stroke-width:1px;stroke-linecap:butt;stroke-linejoin:miter;stroke-opacity:1"
       d="m 1732.2628,1430.5093 -26.5724,12.6535"
       id="path13681"
       inkscape:connector-curvature="0" />
    <path
       style="fill:none;stroke:#000000;stroke-width:1px;stroke-linecap:butt;stroke-linejoin:miter;stroke-opacity:1"
       d="m 1758.8351,1434.3054 -1.2654,24.0416"
       id="path13683"
       inkscape:connector-curvature="0" />
    <path
       style="fill:none;stroke:#000000;stroke-width:1px;stroke-linecap:butt;stroke-linejoin:miter;stroke-opacity:1"
       d="m 1636.0962,1410.2637 h -35.4297"
       id="path13685"
       inkscape:connector-curvature="0" />
    <path
       style="fill:none;stroke:#000000;stroke-width:1px;stroke-linecap:butt;stroke-linejoin:miter;stroke-opacity:1"
       d="m 1634.8309,1439.3668 -30.3684,8.8574"
       id="path13687"
       inkscape:connector-curvature="0" />
    <path
       style="fill:none;stroke:#000000;stroke-width:1px;stroke-linecap:butt;stroke-linejoin:miter;stroke-opacity:1"
       d="m 1866.3897,1455.8163 31.6338,24.0416"
       id="path13689"
       inkscape:connector-curvature="0" />
    <path
       style="fill:none;stroke:#000000;stroke-width:1px;stroke-linecap:butt;stroke-linejoin:miter;stroke-opacity:1"
       d="m 1856.267,1484.9193 31.6337,16.4496"
       id="path13691"
       inkscape:connector-curvature="0" />
    <path
       style="fill:none;stroke:#000000;stroke-width:1px;stroke-linecap:butt;stroke-linejoin:miter;stroke-opacity:1"
       d="m 1957.4949,1195.1544 45.5525,-51.8793 34.1645,-46.8179 20.2455,117.6775 -13.9188,78.4516"
       id="path13693"
       inkscape:connector-curvature="0" />
    <path
       style="fill:none;stroke:#000000;stroke-width:1px;stroke-linecap:butt;stroke-linejoin:miter;stroke-opacity:1"
       d="m 1590.5437,1153.3979 21.5109,-70.8595 24.0416,-58.2061 27.8377,77.1863 17.7149,37.9605"
       id="path13695"
       inkscape:connector-curvature="0" />
  </g>
</svg>
