<?xml version="1.0" encoding="UTF-8" standalone="no"?>
<!-- Created with Inkscape (http://www.inkscape.org/) -->

<svg
   xmlns:dc="http://purl.org/dc/elements/1.1/"
   xmlns:cc="http://creativecommons.org/ns#"
   xmlns:rdf="http://www.w3.org/1999/02/22-rdf-syntax-ns#"
   xmlns:svg="http://www.w3.org/2000/svg"
   xmlns="http://www.w3.org/2000/svg"
   xmlns:xlink="http://www.w3.org/1999/xlink"
   xmlns:sodipodi="http://sodipodi.sourceforge.net/DTD/sodipodi-0.dtd"
   xmlns:inkscape="http://www.inkscape.org/namespaces/inkscape"
   version="1.1"
   id="svg4085"
   width="4352"
   height="3264"
   viewBox="0 0 4352 3264"
   sodipodi:docname="excessive.svg"
   inkscape:version="0.92.2 (5c3e80d, 2017-08-06)">
  <metadata
     id="metadata4091">
    <rdf:RDF>
      <cc:Work
         rdf:about="">
        <dc:format>image/svg+xml</dc:format>
        <dc:type
           rdf:resource="http://purl.org/dc/dcmitype/StillImage" />
        <dc:title />
      </cc:Work>
    </rdf:RDF>
  </metadata>
  <defs
     id="defs4089" />
  <sodipodi:namedview
     pagecolor="#ffffff"
     bordercolor="#666666"
     borderopacity="1"
     objecttolerance="10"
     gridtolerance="10"
     guidetolerance="10"
     inkscape:pageopacity="0"
     inkscape:pageshadow="2"
     inkscape:window-width="1920"
     inkscape:window-height="1023"
     id="namedview4087"
     showgrid="false"
     inkscape:zoom="0.069852941"
     inkscape:cx="2176"
     inkscape:cy="1632"
     inkscape:window-x="0"
     inkscape:window-y="0"
     inkscape:window-maximized="1"
     inkscape:current-layer="layer8"
     inkscape:snap-others="false"
     inkscape:object-nodes="false"
     inkscape:snap-nodes="false" />
  <g
     inkscape:groupmode="layer"
     id="layer7"
     inkscape:label="bg"
     style="display:inline"
     sodipodi:insensitive="true">
    <image
       width="4352"
       height="3264"
       preserveAspectRatio="none"
       xlink:href="file:///home/michael/20180721_184036.jpg"
       id="image4093"
       x="0"
       y="0"
       sodipodi:absref="/home/michael/20180721_184036.jpg" />
  </g>
  <g
     inkscape:groupmode="layer"
     id="layer8"
     inkscape:label="pen">
    <path
       style="fill:none;stroke:#000000;stroke-width:1px;stroke-linecap:butt;stroke-linejoin:miter;stroke-opacity:1"
       d="m 2265.4737,712.21052 -64.4211,85.89474 v 168.21053 l 114.5263,107.36841"
       id="path10893"
       inkscape:connector-curvature="0" />
    <path
       style="fill:none;stroke:#000000;stroke-width:1px;stroke-linecap:butt;stroke-linejoin:miter;stroke-opacity:1"
       d="m 2294.1053,769.47368 -53.6842,-128.8421 -71.579,-146.73685 143.1579,14.31579 153.8947,39.36842"
       id="path10895"
       inkscape:connector-curvature="0" />
    <path
       style="fill:none;stroke:#000000;stroke-width:1px;stroke-linecap:butt;stroke-linejoin:miter;stroke-opacity:1"
       d="m 2462.3158,522.52631 146.7368,-28.63158 114.5264,3.57895"
       id="path10897"
       inkscape:connector-curvature="0" />
    <path
       style="fill:none;stroke:#000000;stroke-width:1px;stroke-linecap:butt;stroke-linejoin:miter;stroke-opacity:1"
       d="M 2720,536.8421 2870.3158,382.94737 3002.7368,340 l -42.9473,118.10526 -21.4737,161.05263"
       id="path10899"
       inkscape:connector-curvature="0" />
    <path
       style="fill:none;stroke:#000000;stroke-width:1px;stroke-linecap:butt;stroke-linejoin:miter;stroke-opacity:1"
       d="m 2966.9474,651.36842 42.9473,161.05263 -42.9473,146.73684 -114.5263,118.10531 -161.0527,57.2631 -171.7894,3.579"
       id="path10901"
       inkscape:connector-curvature="0" />
    <path
       style="fill:none;stroke:#000000;stroke-width:1px;stroke-linecap:butt;stroke-linejoin:miter;stroke-opacity:1"
       d="m 2827.3684,1123.7895 -32.2105,114.5263"
       id="path10903"
       inkscape:connector-curvature="0" />
    <path
       style="fill:none;stroke:#000000;stroke-width:1px;stroke-linecap:butt;stroke-linejoin:miter;stroke-opacity:1"
       d="m 2827.3684,1231.1579 50.1053,186.1053 50.1053,128.8421"
       id="path10905"
       inkscape:connector-curvature="0" />
    <path
       style="fill:none;stroke:#000000;stroke-width:1px;stroke-linecap:butt;stroke-linejoin:miter;stroke-opacity:1"
       d="m 2927.579,1564 71.5789,42.9474 -50.1053,75.1579 -82.3158,-3.579 -46.5263,-60.8421"
       id="path10907"
       inkscape:connector-curvature="0" />
    <path
       style="fill:none;stroke:#000000;stroke-width:1px;stroke-linecap:butt;stroke-linejoin:miter;stroke-opacity:1"
       d="m 2795.1579,1549.6842 -42.9474,-103.7895 -46.5263,-89.4736"
       id="path10909"
       inkscape:connector-curvature="0" />
    <path
       style="fill:none;stroke:#000000;stroke-width:1px;stroke-linecap:butt;stroke-linejoin:miter;stroke-opacity:1"
       d="m 2587.579,1331.3684 -32.2106,279.1579 v 32.2105 l 35.7895,57.2632 -10.7368,75.1579 -75.1579,32.2105 -68,-93.0526 L 2380,1488.8421"
       id="path10911"
       inkscape:connector-curvature="0" />
    <path
       style="fill:none;stroke:#000000;stroke-width:1px;stroke-linecap:butt;stroke-linejoin:miter;stroke-opacity:1"
       d="m 2844.5045,738.36344 65.7982,5.06139 7.592,91.10513 -65.7981,10.12279 -45.5526,-63.26745 z"
       id="path10913"
       inkscape:connector-curvature="0" />
    <path
       style="fill:none;stroke:#000000;stroke-width:1px;stroke-linecap:butt;stroke-linejoin:miter;stroke-opacity:1"
       d="m 2596.4961,837.06066 -7.5921,63.26745 -63.2674,30.36837 -50.614,-55.67535 37.9605,-73.39024 50.6139,2.5307 z"
       id="path10915"
       inkscape:connector-curvature="0" />
    <path
       style="fill:none;stroke:#000000;stroke-width:1px;stroke-linecap:butt;stroke-linejoin:miter;stroke-opacity:1"
       d="m 2809.0747,930.69648 -43.0218,7.5921 -35.4298,12.65349 55.6754,30.36837 z"
       id="path10917"
       inkscape:connector-curvature="0" />
    <path
       style="fill:none;stroke:#000000;stroke-width:1px;stroke-linecap:butt;stroke-linejoin:miter;stroke-opacity:1"
       d="m 2783.7678,999.02533 -27.8377,32.89907"
       id="path10919"
       inkscape:connector-curvature="0" />
    <path
       style="fill:none;stroke:#000000;stroke-width:1px;stroke-linecap:butt;stroke-linejoin:miter;stroke-opacity:1"
       d="m 2804.0133,988.90254 12.6535,30.36836"
       id="path10921"
       inkscape:connector-curvature="0" />
    <path
       style="fill:none;stroke:#000000;stroke-width:1px;stroke-linecap:butt;stroke-linejoin:miter;stroke-opacity:1"
       d="m 2890.0571,923.10439 68.3288,-7.59209"
       id="path10923"
       inkscape:connector-curvature="0" />
    <path
       style="fill:none;stroke:#000000;stroke-width:1px;stroke-linecap:butt;stroke-linejoin:miter;stroke-opacity:1"
       d="m 2905.2413,948.41137 h 45.5525"
       id="path10925"
       inkscape:connector-curvature="0" />
    <path
       style="fill:none;stroke:#000000;stroke-width:1px;stroke-linecap:butt;stroke-linejoin:miter;stroke-opacity:1"
       d="m 2606.6189,988.90254 -65.7982,12.65346"
       id="path10927"
       inkscape:connector-curvature="0" />
    <path
       style="fill:none;stroke:#000000;stroke-width:1px;stroke-linecap:butt;stroke-linejoin:miter;stroke-opacity:1"
       d="m 2619.2724,1019.2709 -65.7982,48.0833"
       id="path10929"
       inkscape:connector-curvature="0" />
    <path
       style="fill:none;stroke:#000000;stroke-width:1px;stroke-linecap:butt;stroke-linejoin:miter;stroke-opacity:1"
       d="m 2831.851,1100.2532 197.3945,83.5131 255.6004,5.0614 174.6182,-121.4735 48.0833,-159.434 -45.5526,-86.04373"
       id="path10931"
       inkscape:connector-curvature="0" />
    <path
       style="fill:none;stroke:#000000;stroke-width:1px;stroke-linecap:butt;stroke-linejoin:miter;stroke-opacity:1"
       d="m 3418.9729,816.81508 78.4517,-118.94281 32.8991,-86.04373 -151.8419,53.14466 -83.5131,45.55256"
       id="path10933"
       inkscape:connector-curvature="0" />
    <path
       style="fill:none;stroke:#000000;stroke-width:1px;stroke-linecap:butt;stroke-linejoin:miter;stroke-opacity:1"
       d="M 3302.5608,687.74948 3163.3724,664.9732 3001.4078,675.09599"
       id="path10935"
       inkscape:connector-curvature="0" />
    <path
       style="fill:none;stroke:#000000;stroke-width:1px;stroke-linecap:butt;stroke-linejoin:miter;stroke-opacity:1"
       d="m 3206.3943,875.02113 73.3903,-5.0614 20.2455,60.73675 -63.2674,37.96047 -48.0833,-48.08326 z"
       id="path10937"
       inkscape:connector-curvature="0" />
    <path
       style="fill:none;stroke:#000000;stroke-width:1px;stroke-linecap:butt;stroke-linejoin:miter;stroke-opacity:1"
       d="m 3097.5743,1014.2095 -40.4912,-2.5307 -40.4911,10.1228 27.8376,27.8377 27.8377,22.7763 25.307,-22.7763 10.1228,-30.3684 z"
       id="path10939"
       inkscape:connector-curvature="0" />
    <path
       style="fill:none;stroke:#000000;stroke-width:1px;stroke-linecap:butt;stroke-linejoin:miter;stroke-opacity:1"
       d="m 3046.9603,1085.0691 -27.8376,20.2455"
       id="path10941"
       inkscape:connector-curvature="0" />
    <path
       style="fill:none;stroke:#000000;stroke-width:1px;stroke-linecap:butt;stroke-linejoin:miter;stroke-opacity:1"
       d="m 3079.8594,1087.5998 32.8991,22.7762"
       id="path10943"
       inkscape:connector-curvature="0" />
    <path
       style="fill:none;stroke:#000000;stroke-width:1px;stroke-linecap:butt;stroke-linejoin:miter;stroke-opacity:1"
       d="m 3183.618,1259.6872 -70.8595,-30.3684 -32.8991,45.5526 15.1842,50.614 50.614,20.2455"
       id="path10945"
       inkscape:connector-curvature="0" />
    <path
       style="fill:none;stroke:#000000;stroke-width:1px;stroke-linecap:butt;stroke-linejoin:miter;stroke-opacity:1"
       d="m 2890.0571,1183.7663 -40.4912,40.4911 2.5307,35.4298 40.4912,27.8377 73.3902,-10.1228 -2.5307,-58.206"
       id="path10947"
       inkscape:connector-curvature="0" />
    <path
       style="fill:none;stroke:#000000;stroke-width:1px;stroke-linecap:butt;stroke-linejoin:miter;stroke-opacity:1"
       d="m 3446.8106,1128.0909 25.307,93.6358 37.9605,53.1447"
       id="path10949"
       inkscape:connector-curvature="0" />
    <path
       style="fill:none;stroke:#000000;stroke-width:1px;stroke-linecap:butt;stroke-linejoin:miter;stroke-opacity:1"
       d="m 1832.2253,1168.5821 -75.9209,93.6358 15.1842,129.0656 149.3111,124.0042 182.2103,75.921 192.333,-25.307 161.9647,-134.127 32.8991,-98.6972 -10.1228,-86.0438 -63.2675,-68.3288"
       id="path10951"
       inkscape:connector-curvature="0" />
    <path
       style="fill:none;stroke:#000000;stroke-width:1px;stroke-linecap:butt;stroke-linejoin:miter;stroke-opacity:1"
       d="m 1941.0453,1092.6612 204.9866,-32.8991 207.5172,53.1446"
       id="path10953"
       inkscape:connector-curvature="0" />
    <path
       style="fill:none;stroke:#000000;stroke-width:1px;stroke-linecap:butt;stroke-linejoin:miter;stroke-opacity:1"
       d="m 2315.5886,1087.5998 48.0833,-68.3289 73.3902,-45.55255 32.8991,111.35075 -12.6535,86.0437"
       id="path10955"
       inkscape:connector-curvature="0" />
    <path
       style="fill:none;stroke:#000000;stroke-width:1px;stroke-linecap:butt;stroke-linejoin:miter;stroke-opacity:1"
       d="m 1953.6988,1062.2928 -60.7367,-60.7368 -108.82,-35.42975 25.3069,146.78045 15.1842,43.0219"
       id="path10957"
       inkscape:connector-curvature="0" />
    <path
       style="fill:none;stroke:#000000;stroke-width:1px;stroke-linecap:butt;stroke-linejoin:miter;stroke-opacity:1"
       d="m 2244.7291,1371.0379 -35.4298,-2.5307 -40.4912,12.6535 17.7149,22.7763 22.7763,20.2456 25.307,-22.7763 z"
       id="path10959"
       inkscape:connector-curvature="0" />
    <path
       style="fill:none;stroke:#000000;stroke-width:1px;stroke-linecap:butt;stroke-linejoin:miter;stroke-opacity:1"
       d="m 2234.6063,1472.2658 -10.1228,-37.9604"
       id="path10961"
       inkscape:connector-curvature="0" />
    <path
       style="fill:none;stroke:#000000;stroke-width:1px;stroke-linecap:butt;stroke-linejoin:miter;stroke-opacity:1"
       d="m 2173.8695,1472.2658 22.7763,-37.9604"
       id="path10963"
       inkscape:connector-curvature="0" />
    <path
       style="fill:none;stroke:#000000;stroke-width:1px;stroke-linecap:butt;stroke-linejoin:miter;stroke-opacity:1"
       d="m 2302.9351,1408.9984 58.2061,15.1842"
       id="path10965"
       inkscape:connector-curvature="0" />
    <path
       style="fill:none;stroke:#000000;stroke-width:1px;stroke-linecap:butt;stroke-linejoin:miter;stroke-opacity:1"
       d="m 2313.0579,1436.8361 48.0833,32.899"
       id="path10967"
       inkscape:connector-curvature="0" />
    <path
       style="fill:none;stroke:#000000;stroke-width:1px;stroke-linecap:butt;stroke-linejoin:miter;stroke-opacity:1"
       d="m 2077.703,1419.1212 -63.2674,45.5526"
       id="path10969"
       inkscape:connector-curvature="0" />
    <path
       style="fill:none;stroke:#000000;stroke-width:1px;stroke-linecap:butt;stroke-linejoin:miter;stroke-opacity:1"
       d="m 2110.6021,1446.9589 -48.0833,43.0218"
       id="path10971"
       inkscape:connector-curvature="0" />
    <path
       style="fill:none;stroke:#000000;stroke-width:1px;stroke-linecap:butt;stroke-linejoin:miter;stroke-opacity:1"
       d="m 2280.1589,1224.2574 75.9209,-5.0613 v 83.513 l -60.7368,30.3684 -40.4911,-63.2675 z"
       id="path10973"
       inkscape:connector-curvature="0" />
    <path
       style="fill:none;stroke:#000000;stroke-width:1px;stroke-linecap:butt;stroke-linejoin:miter;stroke-opacity:1"
       d="m 2077.703,1307.7705 -43.0218,60.7367 -73.3903,-40.4911 20.2456,-65.7982 68.3288,-20.2456 z"
       id="path10975"
       inkscape:connector-curvature="0" />
    <path
       style="fill:none;stroke:#000000;stroke-width:1px;stroke-linecap:butt;stroke-linejoin:miter;stroke-opacity:1"
       d="m 999.62569,1239.4416 45.55261,118.9428 2.5307,101.228 -96.16657,116.4121 -177.14886,70.8595 -187.27164,-5.0614 -116.41211,-65.7981 -75.92094,-124.0042 -17.71488,-103.7587 45.55256,-96.1665"
       id="path10977"
       inkscape:connector-curvature="0" />
    <path
       style="fill:none;stroke:#000000;stroke-width:1px;stroke-linecap:butt;stroke-linejoin:miter;stroke-opacity:1"
       d="m 526.38518,1173.6435 139.18838,-55.6754 149.31118,-15.1842 86.04373,17.7149"
       id="path10979"
       inkscape:connector-curvature="0" />
    <path
       style="fill:none;stroke:#000000;stroke-width:1px;stroke-linecap:butt;stroke-linejoin:miter;stroke-opacity:1"
       d="m 883.21359,1090.1305 60.73675,-58.2061 43.02186,-30.3684 50.614,146.7805 -22.7763,70.8596"
       id="path10981"
       inkscape:connector-curvature="0" />
    <path
       style="fill:none;stroke:#000000;stroke-width:1px;stroke-linecap:butt;stroke-linejoin:miter;stroke-opacity:1"
       d="m 518.79308,1138.2137 -60.73675,-43.0218 -88.57443,-37.9605 -2.5307,116.4121 25.30698,75.9209"
       id="path10983"
       inkscape:connector-curvature="0" />
    <path
       style="fill:none;stroke:#000000;stroke-width:1px;stroke-linecap:butt;stroke-linejoin:miter;stroke-opacity:1"
       d="m 551.69215,1674.7217 80.98234,197.3944 86.04373,265.7233"
       id="path10985"
       inkscape:connector-curvature="0" />
    <path
       style="fill:none;stroke:#000000;stroke-width:1px;stroke-linecap:butt;stroke-linejoin:miter;stroke-opacity:1"
       d="m 690.88054,2145.4315 -22.77628,45.5526 55.67536,32.899 106.28931,-27.8376 -7.59209,-35.4298 -12.65349,-32.8991 -25.30698,-91.1051 -17.71489,-73.3902"
       id="path10987"
       inkscape:connector-curvature="0" />
    <path
       style="fill:none;stroke:#000000;stroke-width:1px;stroke-linecap:butt;stroke-linejoin:miter;stroke-opacity:1"
       d="m 675.69635,1874.6468 83.51304,73.3903 58.20605,30.3683"
       id="path10989"
       inkscape:connector-curvature="0" />
    <path
       style="fill:none;stroke:#000000;stroke-width:1px;stroke-linecap:butt;stroke-linejoin:miter;stroke-opacity:1"
       d="m 774.39357,1829.0943 106.28932,313.8065 22.77628,58.2061"
       id="path10991"
       inkscape:connector-curvature="0" />
    <path
       style="fill:none;stroke:#000000;stroke-width:1px;stroke-linecap:butt;stroke-linejoin:miter;stroke-opacity:1"
       d="m 875.62149,2193.5148 -32.89907,58.206 32.89907,17.7149 96.16653,2.5307 43.02188,-40.4912 -25.307,-98.6972 -35.42977,-172.0874 -7.59209,-121.4735"
       id="path10993"
       inkscape:connector-curvature="0" />
    <path
       style="fill:none;stroke:#000000;stroke-width:1px;stroke-linecap:butt;stroke-linejoin:miter;stroke-opacity:1"
       d="m 986.9722,2003.7124 103.7586,-20.2456 101.2279,-43.0218"
       id="path10995"
       inkscape:connector-curvature="0" />
    <path
       style="fill:none;stroke:#000000;stroke-width:1px;stroke-linecap:butt;stroke-linejoin:miter;stroke-opacity:1"
       d="m 1060.3624,1403.937 63.2675,-25.307"
       id="path10997"
       inkscape:connector-curvature="0" />
    <path
       style="fill:none;stroke:#000000;stroke-width:1px;stroke-linecap:butt;stroke-linejoin:miter;stroke-opacity:1"
       d="m 880.68289,1454.551 h -32.89907 l -37.96047,12.6535 22.77628,17.7148 30.36837,22.7763 7.5921,-20.2456 12.65349,-22.7762 z"
       id="path10999"
       inkscape:connector-curvature="0" />
    <path
       style="fill:none;stroke:#000000;stroke-width:1px;stroke-linecap:butt;stroke-linejoin:miter;stroke-opacity:1"
       d="m 961.66522,1449.4896 45.55258,-10.1228"
       id="path11001"
       inkscape:connector-curvature="0" />
    <path
       style="fill:none;stroke:#000000;stroke-width:1px;stroke-linecap:butt;stroke-linejoin:miter;stroke-opacity:1"
       d="m 966.72662,1489.9807 50.61398,-12.6535"
       id="path11003"
       inkscape:connector-curvature="0" />
    <path
       style="fill:none;stroke:#000000;stroke-width:1px;stroke-linecap:butt;stroke-linejoin:miter;stroke-opacity:1"
       d="m 754.14799,1500.1035 -96.16652,12.6535"
       id="path11005"
       inkscape:connector-curvature="0" />
    <path
       style="fill:none;stroke:#000000;stroke-width:1px;stroke-linecap:butt;stroke-linejoin:miter;stroke-opacity:1"
       d="m 733.90241,1538.064 -65.79815,37.9605"
       id="path11007"
       inkscape:connector-curvature="0" />
    <path
       style="fill:none;stroke:#000000;stroke-width:1px;stroke-linecap:butt;stroke-linejoin:miter;stroke-opacity:1"
       d="m 903.45917,1292.5863 40.49117,-37.9605 50.61396,30.3684 -22.77628,40.4912 -50.61396,17.7149 z"
       id="path11009"
       inkscape:connector-curvature="0" />
    <path
       style="fill:none;stroke:#000000;stroke-width:1px;stroke-linecap:butt;stroke-linejoin:miter;stroke-opacity:1"
       d="m 668.10426,1355.8537 -37.96047,43.0219 -78.45164,-25.307 25.30698,-60.7367 65.79815,-17.7149 z"
       id="path11011"
       inkscape:connector-curvature="0" />
    <path
       style="fill:none;stroke:#000000;stroke-width:1px;stroke-linecap:butt;stroke-linejoin:miter;stroke-opacity:1"
       d="m 855.37591,1510.2263 -30.36838,30.3684"
       id="path11013"
       inkscape:connector-curvature="0" />
    <path
       style="fill:none;stroke:#000000;stroke-width:1px;stroke-linecap:butt;stroke-linejoin:miter;stroke-opacity:1"
       d="m 875.62149,1510.2263 30.36838,25.307"
       id="path11015"
       inkscape:connector-curvature="0" />
  </g>
</svg>
