<?xml version="1.0" encoding="UTF-8" standalone="no"?>
<!-- Created with Inkscape (http://www.inkscape.org/) -->

<svg
   xmlns:dc="http://purl.org/dc/elements/1.1/"
   xmlns:cc="http://creativecommons.org/ns#"
   xmlns:rdf="http://www.w3.org/1999/02/22-rdf-syntax-ns#"
   xmlns:svg="http://www.w3.org/2000/svg"
   xmlns="http://www.w3.org/2000/svg"
   xmlns:xlink="http://www.w3.org/1999/xlink"
   xmlns:sodipodi="http://sodipodi.sourceforge.net/DTD/sodipodi-0.dtd"
   xmlns:inkscape="http://www.inkscape.org/namespaces/inkscape"
   version="1.1"
   id="svg3352"
   width="4352"
   height="3264"
   viewBox="0 0 4352 3264"
   sodipodi:docname="modest.svg"
   inkscape:version="0.92.2 (5c3e80d, 2017-08-06)">
  <metadata
     id="metadata3358">
    <rdf:RDF>
      <cc:Work
         rdf:about="">
        <dc:format>image/svg+xml</dc:format>
        <dc:type
           rdf:resource="http://purl.org/dc/dcmitype/StillImage" />
        <dc:title />
      </cc:Work>
    </rdf:RDF>
  </metadata>
  <defs
     id="defs3356" />
  <sodipodi:namedview
     pagecolor="#ffffff"
     bordercolor="#666666"
     borderopacity="1"
     objecttolerance="10"
     gridtolerance="10"
     guidetolerance="10"
     inkscape:pageopacity="0"
     inkscape:pageshadow="2"
     inkscape:window-width="1920"
     inkscape:window-height="1023"
     id="namedview3354"
     showgrid="false"
     inkscape:zoom="0.19757395"
     inkscape:cx="2252.7686"
     inkscape:cy="1618.4212"
     inkscape:window-x="0"
     inkscape:window-y="0"
     inkscape:window-maximized="1"
     inkscape:current-layer="layer6"
     inkscape:snap-nodes="false"
     inkscape:snap-others="false" />
  <g
     inkscape:groupmode="layer"
     id="layer5"
     inkscape:label="bg"
     style="display:inline"
     sodipodi:insensitive="true">
    <image
       width="4352"
       height="3264"
       preserveAspectRatio="none"
       xlink:href="file:///home/michael/20180721_184020.jpg"
       id="image3360"
       x="0"
       y="0"
       sodipodi:absref="/home/michael/20180721_184020.jpg" />
  </g>
  <g
     inkscape:groupmode="layer"
     id="layer6"
     inkscape:label="pen">
    <path
       style="fill:none;stroke:#000000;stroke-width:1px;stroke-linecap:butt;stroke-linejoin:miter;stroke-opacity:1"
       d="m 1674.9474,246.94737 -196.8421,-114.52632 -332.8421,25.05263 -218.31583,214.73684 -3.57895,193.26316 68,189.68421 189.68418,107.36842 132.4211,32.21053"
       id="path7809"
       inkscape:connector-curvature="0" />
    <path
       style="fill:none;stroke:#000000;stroke-width:1px;stroke-linecap:butt;stroke-linejoin:miter;stroke-opacity:1"
       d="m 1868.2105,479.57894 21.4737,171.78948 -100.2105,178.94737 -243.3684,75.15789 -89.4737,3.57895"
       id="path7811"
       inkscape:connector-curvature="0" />
    <path
       style="fill:none;stroke:#000000;stroke-width:1px;stroke-linecap:butt;stroke-linejoin:miter;stroke-opacity:1"
       d="M 1610.5263,286.31579 1810.9474,146.73684 1954.1053,89.473681 1893.2632,289.89473 1836,454.52631"
       id="path7815"
       inkscape:connector-curvature="0" />
    <path
       style="fill:none;stroke:#000000;stroke-width:1px;stroke-linecap:butt;stroke-linejoin:miter;stroke-opacity:1"
       d="M 1084.4211,182.52631 930.52632,82.315786 808.84211,39.368418 891.1579,232.63158 930.52632,347.15789"
       id="path7817"
       inkscape:connector-curvature="0" />
    <path
       style="fill:none;stroke:#000000;stroke-width:1px;stroke-linecap:butt;stroke-linejoin:miter;stroke-opacity:1"
       d="m 1474.5263,551.15789 82.3158,-82.31579 82.3158,82.31579 -39.3684,93.05263 L 1496,640.63158 Z"
       id="path7819"
       inkscape:connector-curvature="0" />
    <path
       style="fill:none;stroke:#000000;stroke-width:1px;stroke-linecap:butt;stroke-linejoin:miter;stroke-opacity:1"
       d="m 1177.4737,486.73684 -46.5263,89.47368 -68,-25.05263 -28.6316,-85.89474 78.7368,-64.42105 z"
       id="path7821"
       inkscape:connector-curvature="0" />
    <path
       style="fill:none;stroke:#000000;stroke-width:1px;stroke-linecap:butt;stroke-linejoin:miter;stroke-opacity:1"
       d="m 1206.1053,694.31579 50.1052,3.57894 60.8421,14.31579 -42.9473,28.63158 -28.6316,28.63158 -32.2105,-39.36842 z"
       id="path7823"
       inkscape:connector-curvature="0" />
    <path
       style="fill:none;stroke:#000000;stroke-width:1px;stroke-linecap:butt;stroke-linejoin:miter;stroke-opacity:1"
       d="m 1488.8421,758.73684 96.6316,-21.47368"
       id="path7825"
       inkscape:connector-curvature="0" />
    <path
       style="fill:none;stroke:#000000;stroke-width:1px;stroke-linecap:butt;stroke-linejoin:miter;stroke-opacity:1"
       d="m 1510.3158,790.94737 85.8947,3.57894"
       id="path7827"
       inkscape:connector-curvature="0" />
    <path
       style="fill:none;stroke:#000000;stroke-width:1px;stroke-linecap:butt;stroke-linejoin:miter;stroke-opacity:1"
       d="M 1102.3158,705.05263 1041.4737,672.8421"
       id="path7829"
       inkscape:connector-curvature="0" />
    <path
       style="fill:none;stroke:#000000;stroke-width:1px;stroke-linecap:butt;stroke-linejoin:miter;stroke-opacity:1"
       d="M 1080.8421,737.26316 1020,730.10526"
       id="path7831"
       inkscape:connector-curvature="0" />
    <path
       style="fill:none;stroke:#000000;stroke-width:1px;stroke-linecap:butt;stroke-linejoin:miter;stroke-opacity:1"
       d="m 1184.6316,701.47368 21.4737,39.36842 39.3684,35.78948 35.7895,-42.94737 50.1052,-17.89474 -78.7368,-17.89474 z"
       id="path7833"
       inkscape:connector-curvature="0" />
    <path
       style="fill:none;stroke:#000000;stroke-width:1px;stroke-linecap:butt;stroke-linejoin:miter;stroke-opacity:1"
       d="m 1259.7895,798.10526 28.6316,28.63158"
       id="path7835"
       inkscape:connector-curvature="0" />
    <path
       style="fill:none;stroke:#000000;stroke-width:1px;stroke-linecap:butt;stroke-linejoin:miter;stroke-opacity:1"
       d="m 1231.1579,790.94737 -35.7895,28.63157"
       id="path7837"
       inkscape:connector-curvature="0" />
    <path
       style="fill:none;stroke:#000000;stroke-width:1px;stroke-linecap:butt;stroke-linejoin:miter;stroke-opacity:1"
       d="m 1764.4211,862.52631 118.1052,275.57899 100.2105,171.7894 25.0527,164.6316"
       id="path7839"
       inkscape:connector-curvature="0" />
    <path
       style="fill:none;stroke:#000000;stroke-width:1px;stroke-linecap:butt;stroke-linejoin:miter;stroke-opacity:1"
       d="m 1098.7368,844.63158 c -3.5789,14.31579 7.1579,297.05262 7.1579,297.05262 l -10.7368,193.2632"
       id="path7841"
       inkscape:connector-curvature="0" />
    <path
       style="fill:none;stroke:#000000;stroke-width:1px;stroke-linecap:butt;stroke-linejoin:miter;stroke-opacity:1"
       d="m 1055.7895,1345.6842 -50.1053,82.3158 46.5263,89.4737 96.6316,-17.8948 64.4211,-68 -14.3158,-85.8947 14.3158,-168.2105 35.7894,-89.4737"
       id="path7843"
       inkscape:connector-curvature="0" />
    <path
       style="fill:none;stroke:#000000;stroke-width:1px;stroke-linecap:butt;stroke-linejoin:miter;stroke-opacity:1"
       d="m 1478.1053,1173.8947 10.7368,272 7.1579,68"
       id="path7845"
       inkscape:connector-curvature="0" />
    <path
       style="fill:none;stroke:#000000;stroke-width:1px;stroke-linecap:butt;stroke-linejoin:miter;stroke-opacity:1"
       d="m 1453.0526,1546.1053 -21.4737,82.3158 78.7369,60.8421 103.7895,-14.3158 7.1579,-93.0527 -32.2106,-42.9473"
       id="path7847"
       inkscape:connector-curvature="0" />
    <path
       style="fill:none;stroke:#000000;stroke-width:1px;stroke-linecap:butt;stroke-linejoin:miter;stroke-opacity:1"
       d="m 1614.1053,1503.1579 -3.579,-100.2105 28.6316,-139.579 68,-110.9473"
       id="path7849"
       inkscape:connector-curvature="0" />
    <path
       style="fill:none;stroke:#000000;stroke-width:1px;stroke-linecap:butt;stroke-linejoin:miter;stroke-opacity:1"
       d="m 1231.1579,1202.5263 225.4737,71.579"
       id="path7851"
       inkscape:connector-curvature="0" />
    <path
       style="fill:none;stroke:#000000;stroke-width:1px;stroke-linecap:butt;stroke-linejoin:miter;stroke-opacity:1"
       d="m 1657.0526,1342.1053 476,182.5263 -118.1052,272 -53.6842,128.8421 -1266.94741,-465.2632 279.1579,-336.421 96.63161,-39.3684"
       id="path7853"
       inkscape:connector-curvature="0" />
    <path
       style="fill:none;stroke:#000000;stroke-width:1px;stroke-linecap:butt;stroke-linejoin:miter;stroke-opacity:1"
       d="m 1009.2632,1138.1053 75.1579,21.4736"
       id="path7855"
       inkscape:connector-curvature="0" />
    <path
       style="fill:none;stroke:#000000;stroke-width:1px;stroke-linecap:butt;stroke-linejoin:miter;stroke-opacity:1"
       d="m 1800.2105,909.05263 379.3684,-110.94737 1077.2632,329.26314 -1130.9474,400.8421 -472.421,-196.8421"
       id="path7859"
       inkscape:connector-curvature="0" />
    <path
       style="fill:none;stroke:#000000;stroke-width:1px;stroke-linecap:butt;stroke-linejoin:miter;stroke-opacity:1"
       d="m 3274.7368,1120.2105 214.7369,325.6842 -1091.579,479.579 -239.7894,-368.6316"
       id="path7861"
       inkscape:connector-curvature="0" />
    <path
       style="fill:none;stroke:#000000;stroke-width:1px;stroke-linecap:butt;stroke-linejoin:miter;stroke-opacity:1"
       d="m 2133.0526,1585.4737 -3.5789,483.1579 10.7368,737.2631"
       id="path7863"
       inkscape:connector-curvature="0" />
    <path
       style="fill:none;stroke:#000000;stroke-width:1px;stroke-linecap:butt;stroke-linejoin:miter;stroke-opacity:1"
       d="m 2100.8421,2798.7368 -121.6842,-64.421"
       id="path7865"
       inkscape:connector-curvature="0" />
    <path
       style="fill:none;stroke:#000000;stroke-width:1px;stroke-linecap:butt;stroke-linejoin:miter;stroke-opacity:1"
       d="m 2165.2632,2816.6316 1080.8421,-518.9474 -7.1579,-722.9474"
       id="path7867"
       inkscape:connector-curvature="0" />
    <path
       style="fill:none;stroke:#000000;stroke-width:1px;stroke-linecap:butt;stroke-linejoin:miter;stroke-opacity:1"
       d="m 1009.2632,1599.7895 25.0526,465.2631"
       id="path7869"
       inkscape:connector-curvature="0" />
    <path
       style="fill:none;stroke:#000000;stroke-width:1px;stroke-linecap:butt;stroke-linejoin:miter;stroke-opacity:1"
       d="m 1821.6842,2190.3158 -272,-75.1579 -504.6316,-35.7895"
       id="path7871"
       inkscape:connector-curvature="0"
       sodipodi:nodetypes="ccc" />
    <path
       style="fill:none;stroke:#000000;stroke-width:1px;stroke-linecap:butt;stroke-linejoin:miter;stroke-opacity:1"
       d="m 937.68421,2104.4211 -372.21053,10.7368 -340,254.1053 -103.78947,297.0526 239.78947,200.421 533.26316,107.3685 268.42106,32.2105 196.8421,-39.3684 -10.7368,-68 -146.7369,-28.6316"
       id="path7873"
       inkscape:connector-curvature="0" />
    <path
       style="fill:none;stroke:#000000;stroke-width:1px;stroke-linecap:butt;stroke-linejoin:miter;stroke-opacity:1"
       d="m 1961.2632,2494.5263 -3.579,214.7369 -100.2105,93.0526 -214.7369,25.0526"
       id="path7875"
       inkscape:connector-curvature="0" />
    <path
       style="fill:none;stroke:#000000;stroke-width:1px;stroke-linecap:butt;stroke-linejoin:miter;stroke-opacity:1"
       d="m 1825.2632,2290.5263 -264.8421,-136 -314.9474,35.7895 -200.4211,146.7368 -42.9473,204 175.3684,146.7369 239.7895,60.8421 307.7894,-35.7895 164.6316,-121.6842 28.6316,-132.4211"
       id="path7877"
       inkscape:connector-curvature="0" />
    <path
       style="fill:none;stroke:#000000;stroke-width:1px;stroke-linecap:butt;stroke-linejoin:miter;stroke-opacity:1"
       d="m 1957.6842,2448 103.7895,-236.2105 28.6316,-100.2106 -168.2106,50.1053 -128.8421,68"
       id="path7879"
       inkscape:connector-curvature="0" />
    <path
       style="fill:none;stroke:#000000;stroke-width:1px;stroke-linecap:butt;stroke-linejoin:miter;stroke-opacity:1"
       d="m 1266.9474,2154.5263 -175.3685,-60.8421 -157.47364,-28.6316 100.21054,153.8948 25.0526,78.7368"
       id="path7881"
       inkscape:connector-curvature="0" />
    <path
       style="fill:none;stroke:#000000;stroke-width:1px;stroke-linecap:butt;stroke-linejoin:miter;stroke-opacity:1"
       d="m 340,2548.2105 243.36842,-157.4737 229.05263,3.579 93.05264,78.7368 -3.57895,168.2106 -53.68421,57.2631"
       id="path7883"
       inkscape:connector-curvature="0" />
    <path
       style="fill:none;stroke:#000000;stroke-width:1px;stroke-linecap:butt;stroke-linejoin:miter;stroke-opacity:1"
       d="m 583.36842,2709.2632 250.52632,-3.579 178.94736,32.2105"
       id="path7885"
       inkscape:connector-curvature="0" />
    <path
       style="fill:none;stroke:#000000;stroke-width:1px;stroke-linecap:butt;stroke-linejoin:miter;stroke-opacity:1"
       d="m 1152.4211,2712.8421 -118.1053,50.1053 -60.84211,60.8421 39.36841,57.2631 157.4737,10.7369 46.5263,-100.2106"
       id="path7887"
       inkscape:connector-curvature="0" />
    <path
       style="fill:none;stroke:#000000;stroke-width:1px;stroke-linecap:butt;stroke-linejoin:miter;stroke-opacity:1"
       d="m 1206.1053,2845.2632 71.5789,-35.7895"
       id="path7889"
       inkscape:connector-curvature="0" />
    <path
       style="fill:none;stroke:#000000;stroke-width:1px;stroke-linecap:butt;stroke-linejoin:miter;stroke-opacity:1"
       d="m 1331.3684,2759.3684 -42.9473,85.8948 64.421,60.8421 132.4211,17.8947 60.8421,-85.8947 -32.2106,-39.3685"
       id="path7891"
       inkscape:connector-curvature="0" />
    <path
       style="fill:none;stroke:#000000;stroke-width:1px;stroke-linecap:butt;stroke-linejoin:miter;stroke-opacity:1"
       d="m 1549.6842,2838.1053 136,-64.4211 68,-17.8947"
       id="path7893"
       inkscape:connector-curvature="0" />
    <path
       style="fill:none;stroke:#000000;stroke-width:1px;stroke-linecap:butt;stroke-linejoin:miter;stroke-opacity:1"
       d="m 1154.2105,2417.5789 41.1579,21.4737 82.3158,25.0527 41.1579,-1.7895"
       id="path7895"
       inkscape:connector-curvature="0" />
    <path
       style="fill:none;stroke:#000000;stroke-width:1px;stroke-linecap:butt;stroke-linejoin:miter;stroke-opacity:1"
       d="m 1585.4737,2489.1579 68,16.1053 102,-8.9474"
       id="path7897"
       inkscape:connector-curvature="0" />
    <path
       style="fill:none;stroke:#000000;stroke-width:1px;stroke-linecap:butt;stroke-linejoin:miter;stroke-opacity:1"
       d="m 1408.3158,2610.8421 -37.579,-8.9474 -32.2105,5.3685 14.3158,28.6315 17.8947,19.6842 23.2632,-21.4736 z"
       id="path7899"
       inkscape:connector-curvature="0" />
    <path
       style="fill:none;stroke:#000000;stroke-width:1px;stroke-linecap:butt;stroke-linejoin:miter;stroke-opacity:1"
       d="m 1565.7895,2625.1579 98.421,-10.7368"
       id="path7901"
       inkscape:connector-curvature="0" />
    <path
       style="fill:none;stroke:#000000;stroke-width:1px;stroke-linecap:butt;stroke-linejoin:miter;stroke-opacity:1"
       d="M 1583.6842,2659.1579 1666,2680.6316"
       id="path7903"
       inkscape:connector-curvature="0" />
    <path
       style="fill:none;stroke:#000000;stroke-width:1px;stroke-linecap:butt;stroke-linejoin:miter;stroke-opacity:1"
       d="m 1243.6842,2600.1053 -69.7895,-7.1579"
       id="path7905"
       inkscape:connector-curvature="0" />
    <path
       style="fill:none;stroke:#000000;stroke-width:1px;stroke-linecap:butt;stroke-linejoin:miter;stroke-opacity:1"
       d="m 1232.9474,2635.8947 -66.2106,12.5264"
       id="path7907"
       inkscape:connector-curvature="0" />
    <path
       style="fill:none;stroke:#000000;stroke-width:1px;stroke-linecap:butt;stroke-linejoin:miter;stroke-opacity:1"
       d="m 1381.4737,2666.3158 26.8421,28.6316"
       id="path7909"
       inkscape:connector-curvature="0" />
    <path
       style="fill:none;stroke:#000000;stroke-width:1px;stroke-linecap:butt;stroke-linejoin:miter;stroke-opacity:1"
       d="m 1360,2666.3158 -30.4211,23.2631"
       id="path7911"
       inkscape:connector-curvature="0" />
    <path
       style="fill:none;stroke:#000000;stroke-width:1px;stroke-linecap:butt;stroke-linejoin:miter;stroke-opacity:1"
       d="m 4174.9631,1200.7618 63.2674,121.4735 -65.7981,204.9865 -194.8638,149.3112 -212.5786,20.2456 -275.8461,-55.6753 -106.2893,-101.228 -60.7368,-154.3725 40.4912,-164.4954 70.8596,-75.9209"
       id="path7913"
       inkscape:connector-curvature="0" />
    <path
       style="fill:none;stroke:#000000;stroke-width:1px;stroke-linecap:butt;stroke-linejoin:miter;stroke-opacity:1"
       d="m 3570.1262,1074.2269 187.2717,-32.8991 194.8637,20.2456 129.0656,70.8596"
       id="path7915"
       inkscape:connector-curvature="0" />
    <path
       style="fill:none;stroke:#000000;stroke-width:1px;stroke-linecap:butt;stroke-linejoin:miter;stroke-opacity:1"
       d="m 4005.4063,1053.9813 55.6753,-86.04375 48.0833,-113.88141 80.9823,184.74096 v 151.8419"
       id="path7917"
       inkscape:connector-curvature="0" />
    <path
       style="fill:none;stroke:#000000;stroke-width:1px;stroke-linecap:butt;stroke-linejoin:miter;stroke-opacity:1"
       d="m 3580.249,1048.9199 -75.9209,-68.32885 -106.2893,-75.92095 12.6535,154.3726 -7.5921,78.4517"
       id="path7919"
       inkscape:connector-curvature="0" />
    <path
       style="fill:none;stroke:#000000;stroke-width:1px;stroke-linecap:butt;stroke-linejoin:miter;stroke-opacity:1"
       d="m 3899.117,1324.766 86.0437,-37.9605 73.3902,70.8596 -32.899,83.513 h -88.5745 l -48.0832,-53.1446 z"
       id="path7921"
       inkscape:connector-curvature="0" />
    <path
       style="fill:none;stroke:#000000;stroke-width:1px;stroke-linecap:butt;stroke-linejoin:miter;stroke-opacity:1"
       d="m 3668.8235,1347.5423 -22.7763,83.513 -86.0437,12.6535 -53.1447,-53.1446 5.0614,-86.0438 96.1665,-25.307 z"
       id="path7923"
       inkscape:connector-curvature="0" />
    <path
       style="fill:none;stroke:#000000;stroke-width:1px;stroke-linecap:butt;stroke-linejoin:miter;stroke-opacity:1"
       d="m 3355.0169,1506.9763 -103.7586,-2.5307 -121.4735,-7.5921"
       id="path7925"
       inkscape:connector-curvature="0" />
    <path
       style="fill:none;stroke:#000000;stroke-width:1px;stroke-linecap:butt;stroke-linejoin:miter;stroke-opacity:1"
       d="m 3395.5081,2020.7079 -118.9428,2.5307"
       id="path7927"
       inkscape:connector-curvature="0" />
    <path
       style="fill:none;stroke:#000000;stroke-width:1px;stroke-linecap:butt;stroke-linejoin:miter;stroke-opacity:1"
       d="m 3413.223,1830.9056 15.1842,250.5391 2.5307,126.5349 -10.1228,68.3288 20.2455,40.4912 68.3289,5.0614 88.5744,-17.7149 2.5307,-50.6139 -48.0832,-48.0833 -37.9605,-2.5307"
       id="path7929"
       inkscape:connector-curvature="0" />
    <path
       style="fill:none;stroke:#000000;stroke-width:1px;stroke-linecap:butt;stroke-linejoin:miter;stroke-opacity:1"
       d="m 3539.7579,2177.6112 12.6535,-199.9251 7.5921,-141.7191"
       id="path7931"
       inkscape:connector-curvature="0" />
    <path
       style="fill:none;stroke:#000000;stroke-width:1px;stroke-linecap:butt;stroke-linejoin:miter;stroke-opacity:1"
       d="m 3833.3188,1922.0107 -98.6972,63.2675 -169.5568,22.7763"
       id="path7933"
       inkscape:connector-curvature="0" />
    <path
       style="fill:none;stroke:#000000;stroke-width:1px;stroke-linecap:butt;stroke-linejoin:miter;stroke-opacity:1"
       d="m 3929.4854,1701.84 -22.7763,301.1531 v 184.7409"
       id="path7935"
       inkscape:connector-curvature="0" />
    <path
       style="fill:none;stroke:#000000;stroke-width:1px;stroke-linecap:butt;stroke-linejoin:miter;stroke-opacity:1"
       d="m 3770.0514,1972.6247 22.7763,156.9033 10.1228,113.8814 -15.1842,35.4297 32.899,25.307 101.228,-2.5307 48.0832,-58.206 -35.4298,-43.0219 -65.7981,-15.1842"
       id="path7937"
       inkscape:connector-curvature="0" />
    <path
       style="fill:none;stroke:#000000;stroke-width:1px;stroke-linecap:butt;stroke-linejoin:miter;stroke-opacity:1"
       d="m 3909.2398,2187.734 5.0614,-245.4777 12.6535,-235.3549"
       id="path7939"
       inkscape:connector-curvature="0" />
    <path
       style="fill:none;stroke:#000000;stroke-width:1px;stroke-linecap:butt;stroke-linejoin:miter;stroke-opacity:1"
       d="m 3780.1742,1514.5684 -101.2279,-7.5921 17.7148,35.4297 37.9605,40.4912 32.8991,-32.8991 z"
       id="path7941"
       inkscape:connector-curvature="0" />
    <path
       style="fill:none;stroke:#000000;stroke-width:1px;stroke-linecap:butt;stroke-linejoin:miter;stroke-opacity:1"
       d="m 3701.7225,1590.4893 -27.8376,20.2456"
       id="path7943"
       inkscape:connector-curvature="0" />
    <path
       style="fill:none;stroke:#000000;stroke-width:1px;stroke-linecap:butt;stroke-linejoin:miter;stroke-opacity:1"
       d="m 3737.1523,1595.5507 35.4298,32.8991"
       id="path7945"
       inkscape:connector-curvature="0" />
    <path
       style="fill:none;stroke:#000000;stroke-width:1px;stroke-linecap:butt;stroke-linejoin:miter;stroke-opacity:1"
       d="m 3881.4021,1552.5288 88.5744,-7.5921"
       id="path7947"
       inkscape:connector-curvature="0" />
    <path
       style="fill:none;stroke:#000000;stroke-width:1px;stroke-linecap:butt;stroke-linejoin:miter;stroke-opacity:1"
       d="m 3891.5249,1600.6121 91.1051,12.6535"
       id="path7949"
       inkscape:connector-curvature="0" />
    <path
       style="fill:none;stroke:#000000;stroke-width:1px;stroke-linecap:butt;stroke-linejoin:miter;stroke-opacity:1"
       d="m 3557.4728,1522.1604 -75.921,-22.7762"
       id="path7951"
       inkscape:connector-curvature="0" />
    <path
       style="fill:none;stroke:#000000;stroke-width:1px;stroke-linecap:butt;stroke-linejoin:miter;stroke-opacity:1"
       d="m 3554.9421,1565.1823 h -70.8596"
       id="path7953"
       inkscape:connector-curvature="0" />
    <path
       style="fill:none;stroke:#000000;stroke-width:1px;stroke-linecap:butt;stroke-linejoin:miter;stroke-opacity:1"
       d="m 986,2854.2105 -180.73684,3.579 L 544,2807.6842 379.36842,2762.9474 363.26316,2705.6842"
       id="path8182"
       inkscape:connector-curvature="0" />
  </g>
</svg>
