<?xml version="1.0" encoding="UTF-8" standalone="no"?>
<!-- Created with Inkscape (http://www.inkscape.org/) -->

<svg
   xmlns:dc="http://purl.org/dc/elements/1.1/"
   xmlns:cc="http://creativecommons.org/ns#"
   xmlns:rdf="http://www.w3.org/1999/02/22-rdf-syntax-ns#"
   xmlns:svg="http://www.w3.org/2000/svg"
   xmlns="http://www.w3.org/2000/svg"
   xmlns:xlink="http://www.w3.org/1999/xlink"
   xmlns:sodipodi="http://sodipodi.sourceforge.net/DTD/sodipodi-0.dtd"
   xmlns:inkscape="http://www.inkscape.org/namespaces/inkscape"
   version="1.1"
   id="svg1140"
   width="480"
   height="360"
   viewBox="0 0 480 360"
   sodipodi:docname="curtain.svg"
   inkscape:version="0.92.2 (5c3e80d, 2017-08-06)">
  <metadata
     id="metadata1146">
    <rdf:RDF>
      <cc:Work
         rdf:about="">
        <dc:format>image/svg+xml</dc:format>
        <dc:type
           rdf:resource="http://purl.org/dc/dcmitype/StillImage" />
        <dc:title />
      </cc:Work>
    </rdf:RDF>
  </metadata>
  <defs
     id="defs1144" />
  <sodipodi:namedview
     pagecolor="#ffffff"
     bordercolor="#666666"
     borderopacity="1"
     objecttolerance="10"
     gridtolerance="10"
     guidetolerance="10"
     inkscape:pageopacity="0"
     inkscape:pageshadow="2"
     inkscape:window-width="1366"
     inkscape:window-height="719"
     id="namedview1142"
     showgrid="false"
     inkscape:zoom="0.89566858"
     inkscape:cx="149.65766"
     inkscape:cy="140.48683"
     inkscape:window-x="0"
     inkscape:window-y="0"
     inkscape:window-maximized="1"
     inkscape:current-layer="svg1140" />
  <image
     sodipodi:absref="/home/rat/fcc/pro1/hqdefault (1).jpg"
     xlink:href="hqdefault (1).jpg"
     width="480"
     height="360"
     preserveAspectRatio="none"
     id="image1148"
     x="100.4836"
     y="13.956055" />
  <path
     style="fill:#000000;fill-opacity:1;stroke:none;stroke-width:1px;stroke-linecap:butt;stroke-linejoin:miter;stroke-opacity:1"
     d="m 75.682415,45.716935 h -12.23684 c 0,0 -0.932891,26.37279 -5.13158,38.68421 -5.842292,17.130805 -15.534507,33.165985 -27.23684,46.973675 -9.487392,11.19426 -21.3801357,20.45092 -33.9473697,28.02632 -1.464957,0.88306 -2.59898,0.3571 -4.73684,1.97368 -2.13786,1.61658 -8.3039623,8.77437 -13.4210503,11.8421 -8.070345,4.83822 -26.447375,9.86843 -26.447375,9.86843 l 3.15789,6.31579 c 0,0 -3.09394,2.58203 -3.94737,4.3421 -0.6984,1.44034 0.042,3.36903 -0.78947,4.73684 -0.6835,1.12433 -3.1579,2.36842 -3.1579,2.36842 0,0 7.45784,6.27109 10.46053,10.06579 3.36764,4.25591 5.32434,9.46764 8.28947,14.01316 1.1106,1.70254 3.2973,3.70655 4.73705,5.72065 1.39155,1.94667 3.749805,6.12146 3.749805,6.12146 0,0 -2.896485,-3.63713 -4.835535,-4.83553 -1.15032,-0.71094 -3.84868,-1.28289 -3.84868,-1.28289 l 4.14473,8.48684 -7.10526,-8.88158 5.52632,10.85526 -3.1579,0.78948 -4.3421,-8.28948 -1.38158,1.38158 5.13158,6.71053 -6.31579,-6.71053 7.10526,14.01316 v 4.53947 l -3.55263,-7.5 1.18421,6.51316 2.56579,6.31579 -6.51316,-7.69737 1.77632,6.71053 -0.39474,6.31579 -3.55263,-9.47369 h -2.17106 l -1.57894,2.76316 3.94737,7.5 -5.72369,-7.89474 2.17105,8.88158 3.75,6.51316 -1.38157,6.11842 -2.17106,-6.90789 -2.36842,-1.57895 1.57895,4.3421 -2.96053,-1.97368 1.97369,5.92105 0.39473,3.55263 -2.96052,-6.51315 1.97368,7.10526 -3.55263,-5.92105 1.57895,7.10526 -3.55263,-6.71053 1.57894,7.10527 -2.96052,-6.51316 0.98684,7.10526 -2.96053,-6.11842 -1.38158,2.56579 1.77632,5.52632 -0.19737,1.57894 -46.36232,1.72901 -0.0339,-250.171835 179.229615,-0.4789 z"
     id="path1693"
     inkscape:connector-curvature="0"
     sodipodi:nodetypes="ccaaazaccaacasacaccccccccccccccccccccccccccccccccccccccccccccccc"
     inkscape:export-xdpi="96"
     inkscape:export-ydpi="96" />
</svg>
