<?xml version="1.0" encoding="UTF-8" standalone="no"?>
<!-- Created with Inkscape (http://www.inkscape.org/) -->

<svg
   xmlns:dc="http://purl.org/dc/elements/1.1/"
   xmlns:cc="http://creativecommons.org/ns#"
   xmlns:rdf="http://www.w3.org/1999/02/22-rdf-syntax-ns#"
   xmlns:svg="http://www.w3.org/2000/svg"
   xmlns="http://www.w3.org/2000/svg"
   xmlns:xlink="http://www.w3.org/1999/xlink"
   xmlns:sodipodi="http://sodipodi.sourceforge.net/DTD/sodipodi-0.dtd"
   xmlns:inkscape="http://www.inkscape.org/namespaces/inkscape"
   version="1.1"
   id="svg1140"
   width="480"
   height="360"
   viewBox="0 0 480 360"
   sodipodi:docname="curtain.svg"
   inkscape:version="0.92.2 (5c3e80d, 2017-08-06)">
  <metadata
     id="metadata1146">
    <rdf:RDF>
      <cc:Work
         rdf:about="">
        <dc:format>image/svg+xml</dc:format>
        <dc:type
           rdf:resource="http://purl.org/dc/dcmitype/StillImage" />
        <dc:title />
      </cc:Work>
    </rdf:RDF>
  </metadata>
  <defs
     id="defs1144" />
  <sodipodi:namedview
     pagecolor="#ffffff"
     bordercolor="#666666"
     borderopacity="1"
     objecttolerance="10"
     gridtolerance="10"
     guidetolerance="10"
     inkscape:pageopacity="0"
     inkscape:pageshadow="2"
     inkscape:window-width="1920"
     inkscape:window-height="1023"
     id="namedview1142"
     showgrid="false"
     inkscape:zoom="1.2666667"
     inkscape:cx="-105.5203"
     inkscape:cy="204.34424"
     inkscape:window-x="0"
     inkscape:window-y="0"
     inkscape:window-maximized="1"
     inkscape:current-layer="svg1140"
     inkscape:snap-others="false"
     inkscape:object-nodes="false"
     inkscape:snap-nodes="false" />
  <image
     sodipodi:absref="/home/michael/fcc/pro1/hqdefault (1).jpg"
     xlink:href="hqdefault (1).jpg"
     y="13.956055"
     x="100.4836"
     id="image1148"
     preserveAspectRatio="none"
     height="360"
     width="480" />
  <path
     style="fill:#000000;fill-opacity:1;stroke:none;stroke-width:1px;stroke-linecap:butt;stroke-linejoin:miter;stroke-opacity:1"
     d="m 75.682415,45.716935 h -12.23684 c 0,0 -0.932891,26.37279 -5.13158,38.68421 -5.842292,17.130805 -15.534507,33.165985 -27.23684,46.973675 -9.487392,11.19426 -21.3801357,20.45092 -33.9473697,28.02632 -1.464957,0.88306 -2.59898,0.3571 -4.73684,1.97368 -2.13786,1.61658 -8.3039623,8.77437 -13.4210503,11.8421 -8.070345,4.83822 -26.447375,9.86843 -26.447375,9.86843 l 3.15789,6.31579 c 0,0 -3.09394,2.58203 -3.94737,4.3421 -0.6984,1.44034 0.042,3.36903 -0.78947,4.73684 -0.6835,1.12433 -3.1579,2.36842 -3.1579,2.36842 0,0 7.45784,6.27109 10.46053,10.06579 3.36764,4.25591 5.32434,9.46764 8.28947,14.01316 1.1106,1.70254 3.2973,3.70655 4.73705,5.72065 1.39155,1.94667 4.153657,5.8595 3.749805,6.12146 -0.403852,0.26196 -2.896485,-3.63713 -4.835535,-4.83553 -1.15032,-0.71094 -3.84868,-1.28289 -3.84868,-1.28289 0,0 1.771439,2.56578 2.746786,3.78018 0.923293,1.14959 2.93311,3.31105 2.93311,3.31105 0,0 -2.570901,-1.72411 -3.752374,-2.71917 -1.740723,-1.46608 -4.888052,-4.7668 -4.888052,-4.7668 0,0 1.067384,3.23825 1.764688,4.73111 0.687356,1.47156 4.587638,5.48405 4.587638,5.48405 l -0.875348,0.29471 c 0,0 -2.953264,-2.64024 -4.364603,-4.02887 -0.774229,-0.76177 -1.325768,-1.7855 -2.248692,-2.35816 -0.678887,-0.42123 -2.288723,-0.71183 -2.288723,-0.71183 0,0 1.394118,2.02298 1.999858,3.08988 1.087041,1.91463 2.922381,5.9234 2.922381,5.9234 0,0 -2.387848,-3.06626 -3.588867,-4.59384 -0.812741,-1.03372 -2.447802,-3.09361 -2.447802,-3.09361 0,0 5.887688,8.91947 7.10526,14.01316 0.351787,1.4717 0,4.53947 0,4.53947 0,0 -1.152989,-3.39231 -1.960792,-4.98457 -0.448937,-0.8849 -1.591838,-2.51543 -1.591838,-2.51543 0,0 0.568311,4.39421 1.18421,6.51316 0.63424,2.18205 2.56579,6.31579 2.56579,6.31579 0,0 -3.371304,-3.00274 -4.752417,-4.77279 -0.699995,-0.89712 -1.760743,-2.92458 -1.760743,-2.92458 0,0 2.7897,7.86038 2.763162,8.28948 -0.02654,0.42909 -0.968067,4.7126 -1.381582,4.73684 -0.346144,0.0203 -2.475583,-8.06648 -3.761971,-9.19457 -0.496592,-0.43548 -1.491048,-0.7425 -1.961719,-0.27912 -0.578034,0.56908 0.150826,1.61792 0.305127,2.41426 0.514593,2.65579 2.063303,7.8489 2.063303,7.8489 l -5.72369,-7.89474 c 0,0 1.037562,6.05251 2.17105,8.88158 0.931722,2.32548 3.375229,4.03616 3.75,6.51316 0.312782,2.06729 -1.38157,6.11842 -1.38157,6.11842 0,0 -0.722563,-4.97717 -2.17106,-6.90789 -0.569413,-0.75898 -2.36842,-1.57895 -2.36842,-1.57895 0,0 0.40453,1.66046 0.859944,2.36484 0.304896,0.47158 1.207468,1.17479 1.207468,1.17479 0,0 -1.436572,-0.0227 -2.096504,-0.26955 -0.50749,-0.18983 -1.352488,-0.90166 -1.352488,-0.90166 0,0 1.587207,3.24165 1.998361,4.98355 0.344998,1.46162 0.370059,4.49013 0.370059,4.49013 0,0 -0.754361,-2.7583 -1.371737,-4.03921 -0.425524,-0.88286 -1.588783,-2.47394 -1.588783,-2.47394 0,0 0.26887,2.41315 0.58978,3.57881 0.335173,1.21746 1.3839,3.52645 1.3839,3.52645 0,0 -1.733996,-1.91598 -2.377734,-3.02539 -0.522784,-0.90096 -1.174896,-2.89566 -1.174896,-2.89566 0,0 0.497645,2.0149 0.724833,3.02737 0.304071,1.35509 0.854117,4.07789 0.854117,4.07789 0,0 -1.10305,-3.19585 -1.950318,-4.64611 -0.439415,-0.75214 -1.602312,-2.06442 -1.602312,-2.06442 0,0 0.16161,2.24295 0.396559,3.33881 0.275856,1.28666 1.182381,3.76646 1.182381,3.76646 0,0 -1.518201,-2.05384 -2.033801,-3.21121 -0.4652,-1.04424 -0.926719,-3.30195 -0.926719,-3.30195 0,0 -0.351418,2.41816 -0.119625,3.5943 0.321328,1.63044 2.043965,4.54714 2.043965,4.54714 0,0 -2.384768,-2.70898 -3.150121,-4.31781 -0.420098,-0.88307 -0.747909,-2.83679 -0.747909,-2.83679 0,0 -1.292851,1.59848 -1.38158,2.56579 -0.176744,1.92684 1.596012,3.59981 1.77632,5.52632 0.04943,0.5281 -0.19737,1.57894 -0.19737,1.57894 l -46.36232,1.72901 -0.0339,-250.171835 179.229615,-0.4789 z"
     id="path1693"
     inkscape:connector-curvature="0"
     sodipodi:nodetypes="ccaaazaccaacasazacacacsccaacacacacacacaczssaaccaacacacacacacacacacacacacacacaaccccc"
     inkscape:export-xdpi="96"
     inkscape:export-ydpi="96" />
</svg>
