<?xml version="1.0" encoding="UTF-8" standalone="no"?>
<!-- Created with Inkscape (http://www.inkscape.org/) -->

<svg
   xmlns:dc="http://purl.org/dc/elements/1.1/"
   xmlns:cc="http://creativecommons.org/ns#"
   xmlns:rdf="http://www.w3.org/1999/02/22-rdf-syntax-ns#"
   xmlns:svg="http://www.w3.org/2000/svg"
   xmlns="http://www.w3.org/2000/svg"
   xmlns:xlink="http://www.w3.org/1999/xlink"
   xmlns:sodipodi="http://sodipodi.sourceforge.net/DTD/sodipodi-0.dtd"
   xmlns:inkscape="http://www.inkscape.org/namespaces/inkscape"
   version="1.1"
   id="svg1078"
   width="320"
   height="500"
   viewBox="0 0 320 500"
   sodipodi:docname="lotteworking2.svg"
   inkscape:export-filename="/home/michael/fcc/pro1/lotteworking1.png"
   inkscape:export-xdpi="94.301399"
   inkscape:export-ydpi="94.301399"
   inkscape:version="0.92.2 (5c3e80d, 2017-08-06)">
  <metadata
     id="metadata1084">
    <rdf:RDF>
      <cc:Work
         rdf:about="">
        <dc:format>image/svg+xml</dc:format>
        <dc:type
           rdf:resource="http://purl.org/dc/dcmitype/StillImage" />
        <dc:title></dc:title>
      </cc:Work>
    </rdf:RDF>
  </metadata>
  <defs
     id="defs1082" />
  <sodipodi:namedview
     pagecolor="#ffffff"
     bordercolor="#666666"
     borderopacity="1"
     objecttolerance="10"
     gridtolerance="10"
     guidetolerance="10"
     inkscape:pageopacity="0"
     inkscape:pageshadow="2"
     inkscape:window-width="1920"
     inkscape:window-height="1023"
     id="namedview1080"
     showgrid="false"
     inkscape:snap-others="false"
     inkscape:object-nodes="false"
     inkscape:snap-nodes="false"
     inkscape:snap-grids="false"
     inkscape:snap-to-guides="false"
     inkscape:zoom="0.944"
     inkscape:cx="0.30617629"
     inkscape:cy="205.60185"
     inkscape:window-x="0"
     inkscape:window-y="0"
     inkscape:window-maximized="1"
     inkscape:current-layer="layer2"
     showguides="false" />
  <g
     inkscape:groupmode="layer"
     id="layer1"
     inkscape:label="picture"
     style="display:none"
     sodipodi:insensitive="true">
    <image
       sodipodi:absref="/home/michael/fcc/pro1/lotteworking.jpg"
       xlink:href="lotteworking.jpg"
       y="0"
       x="0"
       id="image1086"
       preserveAspectRatio="none"
       height="500"
       width="320" />
  </g>
  <g
     inkscape:groupmode="layer"
     id="layer2"
     inkscape:label="pen"
     style="display:inline">
    <path
       style="fill:#000000;fill-opacity:0.32701422;stroke:none;stroke-width:1px;stroke-linecap:butt;stroke-linejoin:miter;stroke-opacity:1"
       d="M 320.44491,333.68644 111.94574,290.66089 0.6903072,339.76424 -2.1186441,362.8178 0,498.94068 l 108.58051,1.58898 h 211.86441 z"
       id="path1652"
       inkscape:connector-curvature="0"
       sodipodi:nodetypes="cccccccc" />
    <path
       style="fill:#00001f;fill-opacity:0.20379148;stroke:none;stroke-width:1px;stroke-linecap:butt;stroke-linejoin:miter;stroke-opacity:0.521327"
       d="M 320.97458,333.68644 320.44492,0.52966049 -2.1186441,-5.2763659e-7 1.5889831,339.51271 112.29952,290.62326 Z"
       id="path1660"
       inkscape:connector-curvature="0"
       sodipodi:nodetypes="cccccc" />
    <path
       style="fill:#000000;fill-opacity:0.53554505;stroke:none;stroke-width:1px;stroke-linecap:butt;stroke-linejoin:miter;stroke-opacity:1"
       d="m 157.37632,322.56323 c 0,0 -7.00163,-0.90571 -9.86619,0.72798 -1.61134,0.91897 -3.1781,4.56817 -3.1781,4.56817 0,0 10.70899,4.39908 16.1543,6.35742 8.49823,3.0563 18.56957,2.93795 25.75566,8.40796 1.62192,1.2346 2.7066,3.17301 3.37715,5.0979 0.51004,1.46413 0.39646,4.63437 0.39646,4.63437 0,0 -9.95278,-1.35103 -14.96287,-1.45664 -8.04353,-0.16955 -16.05477,1.41241 -24.09961,1.32422 -3.45268,-0.0378 -10.32812,-0.79492 -10.32812,-0.79492 0,0 0.12921,-6.48911 0.26562,-6.88477 0.13641,-0.39566 2.62313,-2.41891 2.27391,-2.92934 -0.34922,-0.51042 -13.41637,-2.83906 -19.80119,-5.26343 -4.97198,-1.8879 -13.86633,-7.14933 -14.25396,-7.16856 -0.38763,-0.0192 -7.77691,2.24079 -8.20899,2.11914 -0.43208,-0.12165 -5.560546,-5.03125 -5.560546,-5.03125 0,0 -6.652735,-0.92989 -10.003315,-1.06054 -3.196909,-0.12466 -9.594341,0.26562 -9.594341,0.26562 0,0 3.354718,4.84898 3.832208,5.26438 0.477491,0.4154 13.31629,4.75479 20.0161,7.01089 5.886394,1.98219 17.481304,5.41549 17.729814,5.73255 0.24851,0.31706 0.29213,2.58412 0,3.17968 -0.29213,0.59556 -6.8261,4.99335 -8.74066,8.60624 -2.29028,4.3219 -2.64801,14.43282 -2.64801,14.43282 l -1.48828,21.94727 c 0,0 -7.985831,6.0528 -11.785157,8.87305 -2.590802,1.92316 -7.567836,6.02421 -8.011719,6.18945 -0.443884,0.16525 -4.519475,-0.20532 -4.93164,0.0664 -0.412165,0.27174 -5.587234,20.33675 -6.357422,20.65625 -0.770188,0.3195 -20.332033,-6.51709 -21.107422,-6.47852 -0.77539,0.0386 -5.109375,2.50781 -5.109375,2.50781 0,0 -1.038071,-0.53925 -1.474609,-0.91992 -0.565087,-0.49277 -1.439454,-1.72851 -1.439454,-1.72851 0,0 -0.03202,1.35161 0.185547,1.97656 0.122419,0.35165 0.609375,0.93555 0.609375,0.93555 0,0 -1.727653,0.12898 -2.52539,-0.14454 -0.655235,-0.22466 -1.712891,-1.17968 -1.712891,-1.17968 0,0 0.507042,1.47756 0.984375,2.07617 0.37032,0.46441 1.400391,1.10156 1.400391,1.10156 0,0 -2.30336,-0.18378 -3.427735,0.0176 -0.745545,0.13349 -1.68959,0.7585 -2.134765,0.77734 -0.445175,0.0188 -11.239932,-4.76753 -12.150391,-4.73437 -0.910459,0.0332 -9.676537,2.4655 -14.21875,4.48242 -3.9247978,1.74276 -11.06109539,6.10938 -11.11328112,6.51758 -0.05218579,0.4082 30.45679812,1.28909 35.29296912,1.74414 4.836171,0.45505 15.302486,2.27392 22.873046,3.84375 7.648658,1.58603 18.859725,5.33124 22.75,5.625 3.890277,0.29376 8.412112,0.83587 12.445313,-0.13867 2.973043,-0.71837 6.390659,-2.22316 8.210935,-4.09766 1.82029,-1.8745 4.50196,-14.03711 4.50196,-14.03711 0,0 5.99391,8.48089 10.39062,10.9043 8.18619,4.51213 18.20598,4.46535 27.49414,5.51562 3.03254,0.34291 9.99883,-0.34667 14.99609,-0.1914 4.18772,0.13013 12.53516,0.9414 12.53516,0.9414 0,0 -3.88937,0.84082 -5.85742,1.11914 -2.79974,0.39594 -8.44727,0.7793 -8.44727,0.7793 0,0 5.62472,1.37575 8.49414,1.6875 2.71506,0.29498 8.19141,0.16602 8.19141,0.16602 0,0 -4.19668,0.70742 -6.31445,0.88086 -2.39037,0.19577 -7.19336,0.17968 -7.19336,0.17968 0,0 4.84939,1.163 7.31055,1.54102 1.96375,0.30163 5.93164,0.57617 5.93164,0.57617 0,0 -2.79484,0.76792 -4.22852,0.93555 -1.66427,0.19459 -5.02539,0.0762 -5.02539,0.0762 0,0 6.23875,2.17848 9.4707,2.81055 2.27914,0.44572 6.9336,0.67968 6.9336,0.67968 0,0 4.89846,4.67895 7.69726,5.85938 7.42881,3.1332 23.52344,3.7207 23.52344,3.7207 l 0.10937,-2.42969 c 0,0 10.66868,-1.40039 16.01563,-1.99414 5.8982,-0.65496 12.67145,-1.89868 17.7207,-1.72851 5.04926,0.17018 10.76112,1.32834 12.1875,1.05859 1.42639,-0.26974 7.80673,-3.8161 8.28711,-3.95508 0.48038,-0.13898 5.22039,1.47515 7.88867,1.93555 2.71934,0.46921 8.23633,0.83396 8.23633,0.83399 0,0 -3.15674,-1.2741 -4.45508,-2.33594 C 277.3752,454.56398 276.3418,453 276.3418,453 c 0,0 2.69392,0.58896 4.06054,0.76367 2.03601,0.26029 6.14454,0.41992 6.14454,0.41992 0,0 -4.057,-2.65837 -5.40235,-4.60547 -0.832,-1.20411 -1.48437,-4.13281 -1.48437,-4.13281 0,0 7.73543,-1.46049 11.65039,-1.49609 2.84807,-0.0259 6.221,-0.78252 8.49414,0.93359 0.92217,0.69619 1.30664,3.21094 1.30664,3.21094 0,0 2.38957,-2.14081 2.50781,-3.59766 0.0904,-1.11347 -1.44726,-3.02343 -1.44726,-3.02343 0,0 3.32556,0.92784 5.00195,1.33984 2.21521,0.54441 6.67773,1.49414 6.67773,1.49414 0,0 -0.9876,-2.5723 -1.54101,-3.83398 -0.3038,-0.69261 -0.97461,-2.04883 -0.97461,-2.04883 l 4.14453,0.14453 3.94922,-2.33008 0.25976,-2.49805 -10.35351,0.18165 -3.52344,2.05468 -2.58203,-1.39062 c 0,0 -2.3731,-1.10323 -3.64063,-1.38867 -1.10141,-0.24804 -3.06414,-0.78958 -3.37695,-0.26563 -0.31282,0.52395 1.04168,2.82349 0.5293,3.31055 -0.51237,0.48705 -2.86637,0.33535 -4.62696,-0.73242 -1.76058,-1.06777 -5.46618,-2.95908 -6.09765,-2.57813 -0.63147,0.38095 0.21921,2.38742 -0.19922,2.97852 -0.41844,0.5911 -1.69005,1.76111 -2.18555,2.18554 -0.4955,0.42443 -3.86915,0.70108 -5.82617,0.72852 -2.13987,0.03 -6.39062,-0.61719 -6.39062,-0.61719 l 7.28125,-1.05078 -0.30079,-2.03906 -8.03515,1.32812 -0.18945,-0.8125 7.02539,-2.17773 -1.14258,-1.42578 -6.86524,2.20312 -0.46484,-0.76172 6.38086,-2.41601 -0.9043,-1.11524 -5.99609,2.51563 -0.63086,-0.9707 5.73047,-2.45704 -0.79492,-0.9707 -5.54493,2.45508 -0.46484,-0.56641 5.43945,-2.58593 -0.69531,-0.70704 -5.35547,2.46289 -0.56055,-0.68945 5.38282,-2.48633 -0.67578,-0.68164 -5.23438,2.29492 -0.66797,-0.78125 4.85352,-2.52343 -0.89649,-0.83789 -4.79687,2.52539 -0.87109,-0.65821 4.96874,-2.62695 -1.30273,-0.97461 -5.35547,2.2793 -1.63086,-0.77735 3.79883,-2.62695 -1.65625,-0.84375 -4.0918,2.57617 -2.13476,-0.84961 3.11914,-2.89062 -1.76367,-0.54102 -3.66602,3.04297 -2.66601,-0.40625 2.89648,-3.19531 -1.72461,-0.28516 -3.12695,3.13477 -1.57617,-0.26563 2.43359,-3.47461 -1.86914,-0.65039 -3.2207,3.70118 -2.07227,-0.34571 1.49023,-3.625 -1.8125,-1.10742 c 0,0 5.14562,-4.21532 7.7461,-6.28906 3.62541,-2.89106 6.85789,-6.4011 10.95312,-8.57617 2.69471,-1.43123 8.13888,-2.89432 8.71094,-2.8125 0.57206,0.0818 5.72592,3.59743 8.82031,4.92578 2.22537,0.95531 4.57493,1.62803 6.9375,2.16015 5.8064,1.30778 11.74883,3.03775 17.67774,2.51563 3.87027,-0.34083 9.55615,-0.0584 11.07422,-3.63477 0.77713,-1.83083 -0.93616,-4.27883 -2.59961,-5.36914 -6.1814,-4.0516 -17.02089,-1.93997 -25.41016,-3.61719 -2.70956,-0.54169 -8.02539,-2.07812 -8.02539,-2.07812 0,0 0.49243,-3.20149 1.92578,-5.85547 0.72149,-1.3359 4.37597,-2.46367 4.72266,-3.96289 0.86407,-3.73659 -1.05397,-6.3347 -3.09375,-8.10547 -4.48411,-3.89271 -10.28906,-2.8125 -10.28906,-2.8125 l -13.43946,-6.41992 c 0,0 -3.52753,-1.09416 -5.76172,-1.35352 -2.23418,-0.25936 -3.96113,1.71651 -7.10351,1.52539 -2.62529,-0.15962 -6.76379,-0.80326 -9.61524,-1.79296 -2.2472,-0.77998 -3.76321,-2.64426 -4.28711,-2.53907 -0.59291,0.11905 0.11372,1.90592 1.25196,3.19727 1.14372,1.29756 2.7207,2.09961 2.7207,2.09961 0,0 -2.0247,0.16482 -4.09375,-0.48633 -1.66883,-0.52519 -3.43156,-1.94174 -3.67969,-1.61914 -0.55576,0.72255 1.9991,3.07129 3.67578,3.77344 1.67668,0.70214 5.6875,0.45117 5.6875,0.45117 0,0 0.38291,0.61923 -0.15234,1.29297 -0.53525,0.67373 -3.46831,0.71616 -3.63281,1.30664 -0.16449,0.59049 2.34084,0.48543 4.82226,0.26367 2.48142,-0.22176 8.95284,-2.24196 9.82032,-2.06836 0.28083,0.0562 1.68694,-1.57266 4.65234,-0.52734 2.9654,1.04532 10.16406,4.73242 10.16406,4.73242 l -0.78125,11.09126 c 0,0 -9.69879,-4.56308 -14.83008,-6.02681 -11.41413,-3.25594 -23.24169,-5.42696 -35.09653,-6.01538 -4.63838,-0.23023 -13.89761,0.98218 -13.89761,0.98218 0,0 3.71183,-4.58012 4.50196,-7.15039 0.79013,-2.57027 1.63281,-4.63674 0.39804,-7.21624 -1.23478,-2.5795 -5.16367,-3.90681 -5.16367,-3.90681 0,0 7.83086,-3.35917 9.20253,-6.95018 0.97915,-2.5634 0.0778,-5.89735 -1.58869,-8.07736 -2.9012,-3.79514 -8.36661,-4.69166 -12.84378,-6.35749 -7.0288,-2.61521 -14.66357,-3.27156 -21.78373,-5.62669 -4.2291,-1.39886 -12.37954,-5.03247 -12.37954,-5.03247 z m 63.59438,62.36255 c 2.91775,0.37827 5.56493,1.9443 8.42774,2.62305 2.13924,0.5072 4.37324,0.54726 6.50728,1.07587 1.29315,0.32031 2.56897,0.7347 3.79155,1.26397 1.62774,0.70468 3.22877,1.5118 4.68164,2.5293 1.2314,0.8624 3.37109,2.99609 3.37109,2.99609 0,0 -4.58245,1.836 -6.55469,3.27735 -2.70829,1.97926 -4.50502,4.99094 -7.02148,7.20898 -1.55459,1.37024 -3.56468,2.21465 -4.96289,3.74414 -1.11633,1.22114 -2.6227,4.21401 -2.6227,4.21401 l -1.73224,-0.37345 0.42158,-2.80919 c 0,0 -1.4506,-0.76577 -2.24633,-0.89104 -0.71073,-0.11189 -2.15383,0.14092 -2.15383,0.14092 l -0.70217,2.76249 -1.96692,-0.18797 0.46811,-2.99598 c 0,0 -0.70016,-0.75117 -1.17023,-0.88909 -0.57077,-0.16747 -1.77894,0.14068 -1.77894,0.14068 l -0.79592,3.18396 -2.01373,-0.28161 0.2816,-3.32428 c 0,0 -0.95887,-0.57444 -1.49781,-0.65441 -0.52856,-0.0784 -1.59203,0.18762 -1.59203,0.18762 l -0.65454,3.18199 -1.54522,-0.18578 0.46728,-2.95076 c 0,0 -0.63303,-0.34888 -0.98178,-0.42033 -0.33687,-0.069 -1.0316,3.5e-4 -1.0316,3.5e-4 l -0.51433,2.9494 -1.59191,0.0936 0.23491,-3.13713 c 0,0 -1.28574,-0.52892 -1.9668,-0.5625 -0.69728,-0.0344 -2.06055,0.375 -2.06055,0.375 l -0.46679,2.90234 h -2.1543 l 0.375,-2.80859 c 0,0 -1.00194,-0.50396 -1.54463,-0.51568 -0.56808,-0.0123 -1.63872,0.46946 -1.63872,0.46946 l -0.37524,2.66731 -2.06055,0.0937 0.46875,-2.71484 c 0,0 -0.85146,-0.43206 -1.3102,-0.42217 -0.44924,0.01 -1.26407,0.46833 -1.26407,0.46833 l -0.46887,3.09026 -1.5576,-0.11609 c 0,0 0.15114,-1.73108 0.20035,-2.27229 0.0283,-0.3107 0.39491,-0.4849 0.5625,-0.74804 0.28491,-0.44735 0.34477,-1.05983 0.74805,-1.4043 0.69033,-0.58967 1.73896,-0.53388 2.57451,-0.88903 0.85483,-0.36334 1.73642,-0.71229 2.48272,-1.26527 0.93962,-0.69622 0.57843,-0.70362 2.43406,-2.52663 1.85563,-1.82301 6.97184,-4.54898 9.92519,-7.44377 1.10374,-1.08185 2.61645,-2.85434 2.85565,-3.65282 0.23919,-0.79849 0.0462,-4.72834 0.0462,-4.72834 0,0 7.14201,-0.92663 10.67382,-0.46875 z m -5.66406,54.69336 c 0,0 -2.12801,4.47888 -3.70703,6.35547 -1.41155,1.67755 -5.03125,4.23633 -5.03125,4.23633 0,0 -3.65612,-3.93534 -5.5625,-5.82617 -1.41858,-1.407 -4.36914,-4.10352 -4.36914,-4.10352 0,0 6.71072,0.40067 10.06369,0.26483 2.88297,-0.1168 8.60623,-0.92694 8.60623,-0.92694 z m 28.4043,4.50195 c 0,0 0.27169,1.18377 0.28176,1.78658 0.0113,0.67867 -0.24982,2.02092 -0.24982,2.02092 0,0 -0.79594,-1.35674 -1.42356,-1.78906 -0.62924,-0.43343 -2.18455,-0.69422 -2.18455,-0.69422 0,0 1.07229,-0.63863 1.65359,-0.85629 0.61769,-0.23129 1.92258,-0.46793 1.92258,-0.46793 z m -9.07032,4.70118 c 0,0 0.83381,1.24652 1.42293,1.6872 0.72412,0.54166 2.48333,1.09209 2.48333,1.09209 0,0 -1.64158,0.59817 -2.49118,0.7914 -1.39915,0.31821 -4.26273,0.59923 -4.26273,0.59923 0,0 1.02784,-1.99884 1.69031,-2.90082 0.33891,-0.46143 1.15734,-1.2691 1.15734,-1.2691 z"
       id="path1662"
       inkscape:connector-curvature="0"
       sodipodi:nodetypes="cacaaacaaczzazzcaczazzaccsccsccccccsccccccssssscccssccccscccccscccsccsccsscccccccsccccccccccccccccscscsccccccccccccccccccccccccccccccccccccccccccccccccccccsccccscscccccccscccccccccccscsccaaczzcaaaaccaaaacaaacccaccccaccccaccccaccccaccccaccccacccsaaaazazcaccacacaccacacaccacacac" />
    <path
       style="fill:#000005;fill-opacity:1;stroke:none;stroke-width:1px;stroke-linecap:butt;stroke-linejoin:miter;stroke-opacity:1"
       d="m 171.08051,352.22458 c 0,0 4.60133,0.0449 6.5251,1.12699 2.1685,1.21978 4.90512,5.62603 4.90512,5.62603 0,0 16.33404,8.85664 21.14393,11.38786 5.97412,3.1439 12.1723,5.84985 18.14089,9.00424 2.63363,1.39187 7.79201,4.3754 7.79201,4.3754 l -7.12993,-1.59468 c 0,0 -10.38112,-5.00326 -14.56568,-6.48834 -4.18456,-1.48509 -10.32839,-2.78072 -10.32839,-2.78072 l -24.36441,-1.85382 -0.79449,-9.00424 c 0,0 4.7612,0.41432 6.75317,1.58899 1.64192,0.96825 3.84005,4.23729 3.84005,4.23729 l 13.77119,2.25105 -17.59612,-9.03033 -3.72274,-3.4167 z"
       id="path1664"
       inkscape:connector-curvature="0"
       sodipodi:nodetypes="cacsacczcccaccccc" />
    <path
       style="fill:#000000;fill-opacity:0.98578197;stroke:none;stroke-width:1px;stroke-linecap:butt;stroke-linejoin:miter;stroke-opacity:1"
       d="M 17.602764,103.00149 0,109.74297 -0.3745269,185.39741 -0.74905379,269.66596 0,414.60787 c 0,0 23.15867,0.13648 34.643738,-1.12359 9.723469,-1.06679 24.557299,-3.18808 28.838571,-5.43064 4.281273,-2.24256 14.419286,-12.17212 14.419286,-12.17212 l 26.729795,-4.02105 1.35973,-1.97137 c 0,0 15.23138,-0.53326 22.84613,-0.37454 10.75223,0.22412 30.35379,2.12403 32.20932,1.87264 1.85553,-0.25139 14.18862,-4.84047 17.97729,-6.74148 3.78867,-1.90101 2.67169,-2.18697 5.24337,-3.37075 2.57168,-1.18378 8.73634,-1.67306 10.29949,-3.08984 1.56316,-1.41679 2.43443,-6.64786 2.43443,-6.64786 l -11.23581,-1.87263 -8.61412,-0.37453 -0.74905,-4.11979 -5.24338,-1.49811 c 0,0 5.00319,0.0178 7.11601,-1.12358 1.31681,-0.71134 3.01699,-3.32531 3.01699,-3.32531 0,0 -8.60144,-6.69621 -9.9136,-7.20298 -1.31216,-0.50678 -13.20943,-0.11431 -20.07322,0.0435 -6.86379,0.15779 -15.61891,-1.21072 -20.52887,-0.54848 -4.90996,0.66224 -12.33736,5.01538 -18.79256,6.53897 -5.29733,1.2503 -16.19358,2.09592 -16.19358,2.09592 0,0 -4.008982,-4.31481 -6.697997,-5.1564 -5.234255,-1.63817 -14.114469,1.64456 -16.433745,0.81331 -2.319276,-0.83125 -5.110799,-6.53655 -8.614119,-8.56868 -3.998715,-2.31949 -8.74913,-3.75036 -13.371323,-3.67906 -4.380307,0.0676 -8.6389,1.91812 -12.55801,3.87573 -1.063061,0.53101 -1.746722,1.75598 -2.886519,2.09203 -1.170721,0.34516 -2.52846,0.26981 -3.656342,-0.19667 -2.369657,-0.98007 -3.272917,-4.3983 -5.729549,-5.13368 -2.418736,-0.72404 -5.428168,-0.33283 -7.490538,1.12358 -1.733619,1.22425 -1.363174,4.81319 -2.996215,5.6179 -1.633041,0.80471 -2.896403,0.16532 -4.494323,-0.74905 -1.5979204,-0.91437 -2.2413436,-3.98556 -4.1632846,-4.97855 -0.9884593,-0.51069 -2.9363779,0.26411 -3.3272533,-0.26483 -0.3908754,-0.52894 4.7818942,-2.54703 4.4261661,-4.93311 -0.3557281,-2.38608 -3.2835408,-4.49495 -3.3025854,-5.17911 -0.019045,-0.68416 2.3756786,-4.79679 2.3756786,-4.79679 0,0 25.0039256,-18.6015 37.5435656,-27.85131 10.883697,-8.02831 29.055078,-21.42209 32.716255,-23.99634 3.661177,-2.57425 8.518618,-15.59852 9.011364,-17.51189 0.492746,-1.91337 -1.487482,-8.99994 0,-13.10844 0.663863,-1.83362 3.745269,-4.49432 3.745269,-4.49432 0,0 16.329925,19.87083 17.228235,20.59898 0.89831,0.72815 6.64776,2.65289 7.49054,3.74527 0.84278,1.09238 2.56281,9.47445 5.24338,13.48297 6.52815,9.76218 14.65402,19.76402 25.46783,24.34424 2.99107,1.26687 9.18681,-0.0255 9.7377,0.37453 0.55089,0.40007 5.0893,5.31449 8.23959,7.11601 7.09411,4.05682 15.44992,5.33528 23.22066,7.86507 1.98994,0.64783 3.63219,0.51051 5.99244,1.87263 2.36025,1.36212 7.91167,8.93306 10.11222,10.48675 2.20055,1.55369 7.62801,2.14234 11.23581,3.74527 3.01419,1.33919 7.68653,4.88009 8.61412,4.86885 0.92759,-0.0112 9.84644,-2.68012 14.60655,-4.49432 3.07983,-1.1738 7.85373,-4.0768 8.98864,-4.1198 1.13491,-0.043 4.49432,1.87264 4.49432,1.87264 0,0 0.17876,9.11272 1.10086,13.54918 1.68963,8.12915 6.37319,15.44116 8.04292,23.57442 0.85303,4.15514 0.6999,11.96791 0.96845,12.68848 0.26855,0.72057 2.43591,2.19815 3.37074,2.24716 0.93483,0.049 4.10554,-2.77265 5.24338,-4.86885 1.39037,-2.56145 1.51728,-5.69971 1.49811,-8.61412 -0.0267,-4.06448 -1.50908,-7.98786 -2.24716,-11.98486 -0.25346,-1.37258 -1.02192,-3.73244 -0.74906,-4.1198 0.27286,-0.38736 6.57271,-1.0253 7.11601,-0.74905 0.5433,0.27625 4.03756,6.72439 7.11601,8.98864 1.40076,1.03028 4.52295,1.54123 4.86885,1.87264 0.3459,0.33141 1.04212,1.93736 1.62057,2.87211 0.65109,1.05214 2.07927,3.07488 2.07927,3.07488 0,0 -2.44931,1.94739 -3.43501,3.14745 -0.85464,1.04049 -3.16185,3.48595 -3.16185,3.48595 0.17479,0.78391 -0.034,1.63099 -0.44061,2.2957 -0.80326,1.31321 -2.5512,1.75762 -3.64127,2.84058 -0.17949,0.17833 -0.44574,0.49162 -0.66302,0.74643 -0.33775,0.3961 -0.47166,0.87021 -0.47166,0.87021 l 1.53113,2.34771 2.46266,1.16512 c 0,0 5.3272,-0.0287 7.89712,-0.63696 2.10005,-0.49704 6.00191,-2.42742 6.00191,-2.42742 0,0 1.62152,1.47124 3.24295,1.54467 2.05707,0.0932 4.21785,-1.32949 4.9551,-1.85103 1.21538,-0.85978 9.53167,-12.34794 9.7377,-14.23203 0.20603,-1.88409 -5.41103,-9.05713 -6.60906,-10.30889 -1.19804,-1.25176 -5.82476,-5.01912 -6.8739,-6.21572 -1.04914,-1.19661 -14.26978,-19.90269 -21.4123,-29.84856 -2.34631,-3.26722 -7.04395,-9.79806 -7.04395,-9.79806 0,0 -3.17805,-3.94557 -5.0467,-5.64063 -5.56525,-5.04824 -10.69852,-8.30425 -18.18025,-13.32625 -4.66183,-3.12919 -9.1388,-7.30682 -13.10996,-8.75591 -0.94553,-0.34503 -1.76548,0.12422 -2.99621,-0.37453 -1.23073,-0.49875 -9.54306,-8.51162 -16.10466,-11.98486 -6.5616,-3.47324 -16.52702,-3.53413 -17.60276,-4.11979 -1.07574,-0.58566 -4.32429,-5.00882 -5.61791,-5.61791 -1.29362,-0.60909 -4.21384,0.0442 -5.43064,-1.4981 -1.2168,-1.54227 -1.95947,-18.31787 -3.558,-20.59898 -1.59853,-2.28111 -12.13032,-7.79334 -16.29192,-13.48297 -3.4679,-4.74123 -7.13608,-8.50183 -11.98486,-14.23202 -2.18932,-2.58729 -5.94484,-4.48712 -8.92571,-7.78928 -4.17253,-4.62223 -7.36622,-10.37528 -7.36622,-10.37528 0,0 -1.94003,-8.72233 -4.11979,-12.54665 -3.94293,-6.91777 -11.81911,-11.04143 -15.73013,-17.97729 -0.70784,-1.25529 -1.31084,-4.1198 -1.31084,-4.1198 0,0 3.03964,0.65456 5.05612,0.37453 2.01647,-0.28005 5.52308,-1.91906 5.99242,-3.93253 0.46934,-2.01348 -0.52838,-11.10974 -0.74905,-16.66645 -0.14375,-3.61973 -1.20985,-9.53234 -0.37453,-10.86128 0.83532,-1.32894 6.35419,-4.40592 7.11601,-5.6179 0.76182,-1.21198 3.36408,-9.29648 4.46219,-14.10351 1.18935,-5.20641 1.66874,-13.796646 2.27929,-15.858645 0.61055,-2.061999 4.10495,-4.745181 4.86886,-7.677801 0.851,-3.266922 0.45629,-6.731747 -0.56179,-10.112226 -1.01808,-3.38048 -4.55163,-9.233018 -7.63237,-13.318424 -7.126,-9.449875 -18.16527,-20.238567 -24.76421,-25.44511 C 108.38082,35.623481 97.198657,29.302856 88.388348,28.845163 79.578039,28.38747 66.779379,31.573796 58.800723,35.586647 48.675374,40.679173 40.006338,48.128341 32.209313,56.185626 c -5.036077,5.204179 -9.942448,10.920455 -12.733914,17.602765 -2.634409,6.306341 -3.370742,13.389978 -3.370742,20.224452 0,3.037545 1.498107,8.988647 1.498107,8.988647 z"
       id="path1648"
       inkscape:connector-curvature="0"
       sodipodi:nodetypes="cccccazcccazzzzcccccaczzzacazaaaaaaazzazzzcazzaczzaazaazzazazcaazzaaazzazacscasscccacsszzzacasszzzzzzssscaaczzazzazazazzsaaac" />
    <path
       style="fill:#00001f;fill-opacity:0.38862562;stroke:none;stroke-width:1px;stroke-linecap:butt;stroke-linejoin:miter;stroke-opacity:1"
       d="m 180.08474,272.24576 -2.34762,-25.68043 3.27847,-8.74905 c 0,0 -0.013,-8.70279 0.34787,-9.67145 0.36084,-0.96866 11.80977,-2.05995 17.77301,-2.04108 5.69647,0.018 16.08373,1.26671 16.96522,2.05715 0.88149,0.79044 0.52967,12.04037 0.52967,12.04037 0,0 2.05392,2.25065 3.17796,9.5339 1.12404,7.28324 -0.52966,34.16314 -0.52966,34.16314"
       id="path1656"
       inkscape:connector-curvature="0"
       sodipodi:nodetypes="ccczazczc" />
    <path
       style="fill:#00001f;fill-opacity:0.39336494;stroke:none;stroke-width:1px;stroke-linecap:butt;stroke-linejoin:miter;stroke-opacity:1"
       d="m 281.80628,295.12309 c -0.28781,-0.56047 -0.2983,-24.25571 0,-24.87297 0.2983,-0.61726 3.11598,-2.63818 4.9234,-3.54554 1.43225,-0.71902 4.58388,-1.45022 4.58388,-1.45022 l -1.05932,-9.42809 6.20469,-0.37648 1.17843,8.44991 c 0,0 8.51045,-0.4601 12.71187,0.0909 3.36107,0.44078 9.84417,2.55191 9.84417,2.55191 l 0.18726,31.34639 c 0,0 -2.92244,2.95952 -7.97153,4.1409 -5.04909,1.18138 -15.61171,0.8899 -20.77469,-0.69869 -5.16298,-1.58859 -9.54035,-5.64755 -9.82816,-6.20802 z"
       id="path1658"
       inkscape:connector-curvature="0"
       sodipodi:nodetypes="zzaccccacczzz" />
  </g>
</svg>
