<?xml version="1.0" encoding="UTF-8" standalone="no"?>
<!-- Created with Inkscape (http://www.inkscape.org/) -->

<svg
   xmlns:dc="http://purl.org/dc/elements/1.1/"
   xmlns:cc="http://creativecommons.org/ns#"
   xmlns:rdf="http://www.w3.org/1999/02/22-rdf-syntax-ns#"
   xmlns:svg="http://www.w3.org/2000/svg"
   xmlns="http://www.w3.org/2000/svg"
   xmlns:xlink="http://www.w3.org/1999/xlink"
   xmlns:sodipodi="http://sodipodi.sourceforge.net/DTD/sodipodi-0.dtd"
   xmlns:inkscape="http://www.inkscape.org/namespaces/inkscape"
   version="1.1"
   id="svg866"
   width="615"
   height="564"
   viewBox="0 0 615 564"
   sodipodi:docname="Lotte-Reiniger.svg"
   inkscape:version="0.92.2 (5c3e80d, 2017-08-06)">
  <metadata
     id="metadata872">
    <rdf:RDF>
      <cc:Work
         rdf:about="">
        <dc:format>image/svg+xml</dc:format>
        <dc:type
           rdf:resource="http://purl.org/dc/dcmitype/StillImage" />
      </cc:Work>
    </rdf:RDF>
  </metadata>
  <defs
     id="defs870">
    <inkscape:path-effect
       effect="skeletal"
       id="path-effect829"
       is_visible="true"
       pattern="M 0,0 H 1"
       copytype="single_stretched"
       prop_scale="1"
       scale_y_rel="false"
       spacing="0"
       normal_offset="0"
       tang_offset="0"
       prop_units="false"
       vertical_pattern="false"
       fuse_tolerance="0" />
  </defs>
  <sodipodi:namedview
     pagecolor="#ffffff"
     bordercolor="#666666"
     borderopacity="1"
     objecttolerance="10"
     gridtolerance="10"
     guidetolerance="10"
     inkscape:pageopacity="0"
     inkscape:pageshadow="2"
     inkscape:window-width="1366"
     inkscape:window-height="719"
     id="namedview868"
     showgrid="false"
     inkscape:zoom="0.67701715"
     inkscape:cx="444.096"
     inkscape:cy="309.5187"
     inkscape:window-x="0"
     inkscape:window-y="0"
     inkscape:window-maximized="1"
     inkscape:current-layer="layer2"
     inkscape:snap-nodes="false" />
  <g
     inkscape:groupmode="layer"
     id="layer1"
     inkscape:label="picture"
     sodipodi:insensitive="true"
     style="display:inline">
    <image
       sodipodi:absref="/home/rat/fcc/pro1/Lotte-Reiniger.jpg"
       xlink:href="Lotte-Reiniger.jpg"
       y="0"
       x="0"
       id="image874"
       preserveAspectRatio="none"
       height="564"
       width="615" />
  </g>
  <g
     inkscape:groupmode="layer"
     id="layer2"
     inkscape:label="pen">
    <path
       style="fill:#000000;stroke:#000000;stroke-width:1px;stroke-linecap:butt;stroke-linejoin:miter;stroke-opacity:1;fill-opacity:1"
       d="m 122.22734,187.71705 4.4312,10.70874 2.2156,22.52528 2.58487,31.38769 -4.43121,7.7546 2.21561,8.49314 6.6468,11.81654 -1.84633,16.24774 7.7546,9.60094 5.539,3.69267 12.55508,7.7546 22.52528,6.27754 15.87847,8.86241 7.75461,-1.1078 5.539,0.73853 11.81654,5.90827 17.72481,-3.3234 -4.4312,22.89454 1.84633,5.16974 -4.80047,12.18581 -2.2156,34.71108 -3.69267,12.55508 -5.539,7.38533 -4.4312,1.84634 -5.53901,3.3234 -0.56734,27.30192 49.35,-2.35 57.5662,-5.38077 -21.78674,-186.11051 -8.86241,3.69267 -1.84633,2.58487 -7.38534,-4.80047 -10.70874,3.3234 -1.84633,0.36927 -12.55508,-3.32341 -5.90827,2.95414 -14.40141,-2.58487 -8.8624,1.47707 -10.70874,-0.73853 -9.23167,0.36926 -6.64681,-2.95413 -5.16973,4.06193 -5.90827,-6.6468 -4.80047,1.1078 -3.3234,-5.16974 -2.58487,-0.36926 -14.77068,-25.11015 -1.84633,-1.47707 -7.01607,-35.81889 7.01607,-15.13994 0.73853,-11.078 -1.47706,-9.23168 -3.32341,-5.539 -0.73853,-4.4312 -4.80047,1.84633 0.73853,5.90827 2.95414,3.69267 3.3234,11.44728 -1.1078,5.90827 -4.4312,-1.84634 -1.47707,9.23167 -12.18581,3.3234 z"
       id="path948"
       inkscape:connector-curvature="0"
       inkscape:export-xdpi="94.301399"
       inkscape:export-ydpi="94.301399" />
    <path
       style="fill:#000000;stroke:#000000;stroke-width:1px;stroke-linecap:butt;stroke-linejoin:miter;stroke-opacity:1;fill-opacity:1"
       d="m 302.79883,275.97185 2.2156,-16.98628 2.2156,-2.95413 0.73853,-25.84869 32.49549,-19.20187 25.84868,5.90827 16.24774,22.15601 5.90827,19.94041 -8.8624,22.15601 -5.90827,3.69267 -4.43121,12.55507 23.63308,9.60094 35.44962,28.06428 18.46335,24.37162 16.24774,28.80281 10.33947,26.58722 5.90827,23.63308 -26.58721,9.60093 -7.38534,-2.2156 -14.77068,5.90827 -4.4312,-2.95413 -6.6468,8.8624 -12.55508,-5.90827 -12.55507,0.73854 -14.77067,0.73853 h -12.55508 l -33.23401,0.73853 -27.32575,-4.4312 -17.72481,-165.43155 z"
       id="path823"
       inkscape:connector-curvature="0"
       inkscape:export-xdpi="94.301399"
       inkscape:export-ydpi="94.301399" />
    <path
       style="fill:none;stroke:#fffcfc;stroke-width:1px;stroke-linecap:butt;stroke-linejoin:miter;stroke-opacity:1"
       d="m 430.56516,411.86205 -14.77067,8.86241 -9.60094,-1.47707 -12.55507,4.4312 -6.64681,4.4312 -10e-6,-10e-6 -7.38532,-5.35436 -8.30851,-7.56997 -7.01607,0.18464 -6.83143,-3.50804 -1e-5,0 -8.8624,1.6617 -4.9851,3.8773 -5.16974,9.78558 0.18463,7.01607 1e-5,-10e-6 4.98509,-4.24655 1e-5,-1e-5 2.58487,-7.56997 1e-5,0 8.67776,-4.98511 5.90827,-1.47706 -14.40141,6.6468 -2.2156,10.33947 2.40023,11.63189 0,2e-5 6.27754,3.8773 4.80047,1.29244 -1.1078,-5.72364 -4.24657,-0.5539 -0.5539,-10.52409 0,-2e-5 3.13877,-5.90827 2e-5,0 7.75458,-0.73853 3.50804,-3.69267 -11.44728,10.89337 2.2156,12.73969 0,2e-5 5.72364,8.12387 3.69267,-3.8773 -4.4312,-7.75461 1.84633,-7.7546 7.38534,-5.539 -1e-5,1e-5 -7.38533,6.64679 -0.92317,6.27754 5.35437,10.5241 9.97019,-1.6617 2e-5,0 -3.8773,-4.4312 -10e-6,-2e-5 -2.76948,-6.09286 -1e-5,-2e-5 3.8773,1.1078 3.13877,7.38534 2.58486,3.3234"
       id="path825"
       inkscape:connector-curvature="0"
       inkscape:path-effect="#path-effect829"
       inkscape:original-d="m 430.56516,411.86205 -14.77067,8.86241 -9.60094,-1.47707 -12.55507,4.4312 -6.64681,4.4312 -7.38533,-5.35437 -8.30851,-7.56997 -7.01607,0.18464 -6.83144,-3.50804 -8.8624,1.6617 -4.9851,3.8773 -5.16974,9.78558 0.18463,7.01607 4.98511,-4.24657 2.58487,-7.56997 8.67777,-4.98511 5.90827,-1.47706 -14.40141,6.6468 -2.2156,10.33947 2.40023,11.63191 6.27754,3.8773 4.80047,1.29244 -1.1078,-5.72364 -4.24657,-0.5539 -0.5539,-10.52411 3.13877,-5.90827 7.7546,-0.73853 3.50804,-3.69267 -11.44728,10.89337 2.2156,12.73971 5.72364,8.12387 3.69267,-3.8773 -4.4312,-7.75461 1.84633,-7.7546 7.38534,-5.539 -7.38534,6.6468 -0.92317,6.27754 5.35437,10.5241 9.97021,-1.6617 -3.8773,-4.4312 -2.7695,-6.0929 3.8773,1.1078 3.13877,7.38534 2.58486,3.3234"
       inkscape:export-xdpi="94.301399"
       inkscape:export-ydpi="94.301399" />
    <path
       style="fill:none;stroke:#000000;stroke-width:1px;stroke-linecap:butt;stroke-linejoin:miter;stroke-opacity:1"
       d="m 307.21961,580.83239 c 0,0 20.93228,-1.60363 31.4175,-1.5558 10.08545,0.046 30.20472,1.77211 30.20472,1.77211 0,0 -20.08031,1.1289 -30.1305,1.10237 -10.5064,-0.0277 -31.49172,-1.31868 -31.49172,-1.31868 z"
       id="path827"
       inkscape:connector-curvature="0"
       sodipodi:nodetypes="cacac" />
    <path
       style="fill:#000000;stroke:none;stroke-width:1px;stroke-linecap:butt;stroke-linejoin:miter;stroke-opacity:1;fill-opacity:0.57286429"
       d="M 620.36833,521.16504 511.06534,473.89889 126.28927,492.36223 223.03719,570.6468 Z"
       id="path4532"
       inkscape:connector-curvature="0"
       inkscape:export-xdpi="94.301399"
       inkscape:export-ydpi="94.301399" />
  </g>
</svg>
